<svg xmlns="http://www.w3.org/2000/svg" width="811.453" height="311.372" viewBox="0 0 811.453 311.372">
  <path fill="#f2f2f2" d="M.001 93.839a48.214 48.214 0 0 1 48.147-45.694c1.465 0 2.912.076 4.344.2a64.058 64.058 0 0 1 110.733-.052 49 49 0 0 1 3.656-.152 48.214 48.214 0 0 1 48.147 45.693"/>
  <path fill="none" stroke="#3f3d56" stroke-miterlimit="10" d="M10.042 90.131a48.214 48.214 0 0 1 48.147-45.694c1.465 0 2.912.076 4.344.2a64.058 64.058 0 0 1 110.733-.052 49 49 0 0 1 3.656-.152 48.214 48.214 0 0 1 48.147 45.693"/>
  <path fill="#f2f2f2" d="M66.026 268.807A159.577 159.577 0 0 1 225.382 117.57c4.85 0 9.639.253 14.379.677a212.017 212.017 0 0 1 366.5-.173c4-.3 8.024-.5 12.1-.5a159.577 159.577 0 0 1 159.356 151.233"/>
  <path fill="none" stroke="#3f3d56" stroke-miterlimit="10" d="M99.263 256.532a159.577 159.577 0 0 1 159.356-151.233c4.85 0 9.639.253 14.379.677a212.017 212.017 0 0 1 366.5-.173c4-.3 8.024-.5 12.1-.5a159.577 159.577 0 0 1 159.356 151.229"/>
  <path fill="#3B82F6" d="M166.972 311.373a65.236 65.236 0 0 1 65.146-61.827c1.983 0 3.94.1 5.878.277a86.674 86.674 0 0 1 149.827-.071 66 66 0 0 1 4.946-.206 65.236 65.236 0 0 1 65.146 61.825"/>
  <path fill="none" stroke="#3f3d56" stroke-miterlimit="10" d="M180.56 306.354a65.236 65.236 0 0 1 65.147-61.828c1.983 0 3.94.1 5.878.277a86.674 86.674 0 0 1 149.828-.071 66 66 0 0 1 4.946-.206 65.236 65.236 0 0 1 65.148 61.827"/>
</svg>
