<svg xmlns="http://www.w3.org/2000/svg" width="655.23" height="504.543" viewBox="0 0 655.23 504.543">
  <path fill="#a0616a" d="m431.995 495.424 13.39-.001 6.369-51.645-19.762.001z"/>
  <path fill="#2f2e41" d="M477.868 495.12c.417.703.637 2.969.637 3.785a4.544 4.544 0 0 1-4.544 4.545h-41.465a3.1 3.1 0 0 1-3.1-3.1v-1.727s-2.052-5.188 2.172-11.583c0 0 5.248 5.007 13.091-2.836l2.313-4.19 16.742 12.244 9.28 1.143c2.03.25 3.83-.04 4.874 1.72"/>
  <path fill="#a0616a" d="m472.83 481.8 12.644 4.408 23.017-46.67-18.66-6.504z"/>
  <path fill="#2f2e41" d="M516.247 496.617c.162.8-.376 3.012-.645 3.783a4.544 4.544 0 0 1-5.787 2.795l-39.154-13.652a3.1 3.1 0 0 1-1.906-3.948l.568-1.63s-.229-5.574 5.865-10.222c0 0 3.307 6.456 13.295 1.632l3.563-3.194 11.778 17.073 8.386 4.134c1.835.904 3.63 1.224 4.036 3.229"/>
  <path fill="#e6e6e6" d="M56.08 177h-52c-2.205 0-4-1.794-4-4s1.795-4 4-4h52c2.206 0 4 1.794 4 4s-1.794 4-4 4M0 138.571h195.081v1H0zM135.08 247h-52c-2.205 0-4-1.794-4-4s1.795-4 4-4h52c2.206 0 4 1.794 4 4s-1.794 4-4 4M79 208.571h195.081v1H79zM62.08 339h-52c-2.205 0-4-1.794-4-4s1.795-4 4-4h52c2.206 0 4 1.794 4 4s-1.794 4-4 4M6 300.571h195.081v1H6z"/>
  <path fill="#3f3d56" d="m178.836 305.047-8.23-3.899c3.375 4.711 6.284 12.068 7.841 17.923 2.637-5.454 6.887-12.126 11.094-16.112l-8.698 2.238c5.36-26.268 25.519-45.126 48.604-45.126v-2c-24.113 0-45.139 19.647-50.611 46.976"/>
  <path fill="#3B82F6" d="M216.715 345.07h-52c-2.206 0-4-1.794-4-4s1.794-4 4-4h52c2.205 0 4 1.795 4 4s-1.795 4-4 4"/>
  <path fill="#3f3d56" d="m554.02 269.144-8.23-3.898c3.376 4.71 6.285 12.068 7.842 17.922 2.636-5.453 6.887-12.126 11.094-16.112l-8.698 2.238c5.36-26.268 25.519-45.126 48.604-45.126v-2c-24.113 0-45.139 19.648-50.611 46.976"/>
  <path fill="#3B82F6" d="M591.9 309.168h-52c-2.206 0-4-1.794-4-4s1.794-4 4-4h52c2.205 0 4 1.795 4 4s-1.795 4-4 4"/>
  <path fill="#2f2e41" d="m496.898 193-89 13 22 267 25-1 8-182 33 81-20 100 25-.976 30-100.024-20-114z"/>
  <path fill="#3B82F6" d="M470.898 62h-32.394L412.22 207.955s15.648 21.463 46.662 1.254 45.338-3.254 45.338-3.254z"/>
  <path fill="#2f2e41" d="M420.22 314.955 450.899 259l2-164-14.394-33-8.606 14-26 16.102 5.04 70.91-1.79 46.059-.927 23.884c-3.241 14.314 2.521 72.855 14 82M471.78 65.653 503.398 92.5l18.5 158.5.323-.045c1.697 6.656 1.817 47.261-2.003 52.97l-45.82-46.425-13.5-163.5z"/>
  <path fill="#a0616a" d="M577.367 227.413c3.012 5.831 2.446 12.111-1.264 14.028s-9.16-1.256-12.172-7.087c-1.319-2.552-1.952-5.19-1.935-7.511l-12.453-24.867 11.794-5.595 11.024 25.107c1.902 1.33 3.688 3.373 5.006 5.925"/>
  <path fill="#2f2e41" d="M477.355 69.861s23.44 18.924 30.672 25.522c3.843 3.507 29.615 57.608 29.615 57.608l35.797 62.342-18.607 7.067-38.064-57.481L483.898 127z"/>
  <path fill="#a0616a" d="M331.428 233.413c-3.012 5.831-2.446 12.111 1.265 14.028s9.16-1.256 12.172-7.087c1.318-2.552 1.95-5.19 1.934-7.511l12.453-24.867-11.793-5.595-11.025 25.107c-1.902 1.33-3.688 3.373-5.006 5.925"/>
  <path fill="#2f2e41" d="M430.792 74.503S408 86.785 400.769 93.383c-3.843 3.507-29.616 65.608-29.616 65.608l-35.797 62.342 18.608 7.067 38.063-57.481L417.897 139z"/>
  <circle cx="455.419" cy="30.491" r="26.115" fill="#a0616a"/>
  <path fill="#2f2e41" d="M466.134 0s1.868 7.472-6.538.934c-3.065-2.384-6.985 1.454-10.274 1.868-5.73.721-10.274.175-10.274 3.736 0 2.276-3.023-1.188-4.67-.934-2.408.37-3.736 3.736-3.736 3.736-3.648 2.321-6.538 7.472-.934 9.34-5.604 6.538-.41 9.87-.41 9.87l5.08-6.134c2.63 1.435 6.203 5.143 7.513 3.063 3.695-5.865 14.567.25 19.072-2.213 4.536-2.48 7.039 7.556 7.039 7.556l2.078 1.081s-1.144-2.015 4.46-3.883c2.802-.934 3.502 1.868 3.502 4.904 0 3.433-.978 6.796-2.664 9.787l-5.298 9.39 2.326-1.482c4.896-3.122 8.094-8.088 9.823-13.63.083-.268.194-.51.337-.717l-.554-4.516 1.828 2.146c.282-.803.355-1.554.04-2.146-3.367-6.335 1.868-10.274-3.736-18.68C471.838.618 466.134 0 466.134 0"/>
  <path fill="#ccc" d="M289.56 503.353c0 .66.53 1.19 1.19 1.19h363.29c.66 0 1.19-.53 1.19-1.19s-.53-1.19-1.19-1.19H290.75c-.66 0-1.19.53-1.19 1.19"/>
  <path fill="#fff" d="M247.079 249.5h-31.363c-4.035 0-7.318-3.283-7.318-7.319V206.82c0-4.036 3.283-7.319 7.318-7.319h31.363c4.035 0 7.319 3.283 7.319 7.319v35.362c0 4.036-3.284 7.319-7.32 7.319"/>
  <path fill="#3f3d56" d="M247.079 249.5h-31.363c-4.035 0-7.318-3.283-7.318-7.319V206.82c0-4.036 3.283-7.319 7.318-7.319h31.363c4.035 0 7.319 3.283 7.319 7.319 3.514 11.126 3.157 22.98 0 35.362 0 4.036-3.284 7.319-7.32 7.319m-31.363-49a6.326 6.326 0 0 0-6.318 6.319v35.362a6.326 6.326 0 0 0 6.318 6.319h31.363a6.326 6.326 0 0 0 6.319-6.319V206.82a6.326 6.326 0 0 0-6.32-6.319z"/>
  <path fill="#3B82F6" d="M243.91 221h-25.841c-1.096 0-1.988-.892-1.988-1.988s.892-1.988 1.988-1.988h25.84c1.097 0 1.989.892 1.989 1.988S245.006 221 243.91 221M243.91 232h-25.841c-1.096 0-1.988-.892-1.988-1.988s.892-1.988 1.988-1.988h25.84c1.097 0 1.989.892 1.989 1.988S245.006 232 243.91 232"/>
  <path fill="#fff" d="M49.295 154.693H17.933c-4.036 0-7.319-3.283-7.319-7.319v-35.362c0-4.036 3.283-7.32 7.319-7.32h31.362c4.036 0 7.32 3.284 7.32 7.32v35.362c0 4.036-3.284 7.319-7.32 7.319"/>
  <path fill="#3f3d56" d="M49.295 154.693H17.933c-4.036 0-7.319-3.283-7.319-7.319-1.577-13.021-2.011-25.149 0-35.362 0-4.036 3.283-7.32 7.319-7.32h31.362c4.036.001 7.32 3.284 7.32 7.32v35.362c0 4.036-3.284 7.319-7.32 7.319m-31.362-49a6.326 6.326 0 0 0-6.319 6.319v35.362a6.326 6.326 0 0 0 6.319 6.319h31.362a6.326 6.326 0 0 0 6.32-6.319v-35.362a6.326 6.326 0 0 0-6.32-6.32z"/>
  <path fill="#3B82F6" d="M46.126 126.193h-25.84c-1.097 0-1.989-.892-1.989-1.988s.892-1.988 1.988-1.988h25.841c1.096 0 1.988.892 1.988 1.988s-.892 1.988-1.988 1.988M46.126 137.193h-25.84c-1.097 0-1.989-.892-1.989-1.988s.892-1.988 1.988-1.988h25.841c1.096 0 1.988.892 1.988 1.988s-.892 1.988-1.988 1.988M46.126 115.193h-25.84c-1.097 0-1.989-.892-1.989-1.988s.892-1.988 1.988-1.988h25.841c1.096 0 1.988.892 1.988 1.988s-.892 1.988-1.988 1.988"/>
  <path fill="#fff" d="m383.945 226.955-23.437 20.84c-3.016 2.682-7.65 2.41-10.332-.606-9.742-7.737-17.733-16.456-23.499-26.426-2.681-3.015-2.41-7.65.606-10.332l23.437-20.84c3.016-2.682 7.651-2.41 10.333.606l23.498 26.425c2.682 3.016 2.41 7.651-.606 10.333"/>
  <path fill="#3f3d56" d="m383.945 226.955-23.437 20.84c-3.016 2.682-7.65 2.41-10.332-.606-11.114-6.804-19.441-15.31-23.499-26.426-2.681-3.015-2.41-7.65.606-10.332l23.437-20.84c3.016-2.682 7.651-2.41 10.333.606l23.498 26.425c2.682 3.016 2.41 7.651-.606 10.333m-55.997-15.777a6.326 6.326 0 0 0-.523 8.92c5.197 10.545 13.211 19.234 23.498 26.427a6.326 6.326 0 0 0 8.92.523l23.437-20.84a6.326 6.326 0 0 0 .524-8.921l-23.499-26.426a6.326 6.326 0 0 0-8.92-.523z"/>
  <path fill="#3B82F6" d="m362.639 207.763-19.311 17.171c-.82.729-2.078.655-2.807-.164s-.654-2.078.165-2.806l19.31-17.172c.82-.728 2.079-.654 2.807.165s.655 2.078-.164 2.806M369.948 215.983l-19.31 17.172c-.82.728-2.079.654-2.807-.165s-.655-2.078.165-2.806l19.31-17.172c.82-.728 2.078-.654 2.807.165s.654 2.078-.165 2.806M355.33 199.543l-19.312 17.171c-.819.729-2.078.655-2.806-.164s-.655-2.078.165-2.807l19.31-17.171a1.99 1.99 0 0 1 2.642 2.97"/>
  <path fill="#fff" d="M114.295 329.693H82.933c-4.036 0-7.319-3.283-7.319-7.319v-35.362c0-4.036 3.283-7.32 7.319-7.32h31.362c4.036 0 7.32 3.284 7.32 7.32v35.362c0 4.036-3.284 7.319-7.32 7.319"/>
  <path fill="#3f3d56" d="M114.295 329.693H82.933c-4.036 0-7.319-3.283-7.319-7.319-2.78-11.652-2.55-23.45 0-35.362 0-4.036 3.283-7.32 7.319-7.32h31.362c4.036 0 7.32 3.284 7.32 7.32v35.362c0 4.036-3.284 7.319-7.32 7.319m-31.362-49a6.326 6.326 0 0 0-6.319 6.319v35.362a6.326 6.326 0 0 0 6.319 6.319h31.362a6.326 6.326 0 0 0 6.32-6.319v-35.362a6.326 6.326 0 0 0-6.32-6.32z"/>
  <path fill="#3B82F6" d="M111.126 301.193h-25.84c-1.097 0-1.989-.892-1.989-1.988s.892-1.988 1.988-1.988h25.841c1.096 0 1.988.892 1.988 1.988s-.892 1.988-1.988 1.988"/>
</svg>
