<svg xmlns="http://www.w3.org/2000/svg" width="703.817" height="573.37" viewBox="0 0 703.817 573.37">
  <path fill="#e6e6e6" d="M206.298 540.321a21.57 21.57 0 0 0 20.509 5.179c9.164-2.601 15.383-10.87 20.903-18.633l16.334-22.96-13.765 2.525c-9.9 1.815-20.044 3.72-28.665 8.914s-15.526 14.466-14.98 24.516" data-name="Path 461"/>
  <path fill="#f2f2f2" d="M193.503 571.25c2.414-8.232 4.842-16.575 9.104-24.077 3.786-6.662 8.958-12.508 15.782-16.142a35.3 35.3 0 0 1 11.605-3.775c1.058-.15 1.23 1.497.177 1.647a33.5 33.5 0 0 0-18.638 9.166c-5.637 5.515-9.334 12.625-12.068 19.943-1.655 4.425-2.99 8.958-4.32 13.49a.854.854 0 0 1-.945.694.833.833 0 0 1-.693-.946Z" data-name="Path 462"/>
  <path fill="#ffb7b7" d="M459.314 239.738a11.04 11.04 0 0 1 13.605 10.07l37.765 10.616-15.41 13.346-33.499-12.127a11.099 11.099 0 0 1-2.461-21.905M556.357 561.294l-11.008-.001-5.237-42.458 16.247.001z"/>
  <path fill="#2f2e41" d="m559.164 571.964-35.493-.001v-.449a13.816 13.816 0 0 1 13.815-13.815l21.679.001Z"/>
  <path fill="#ffb7b7" d="m620.859 561.294-11.008-.001-5.237-42.458 16.246.001z"/>
  <path fill="#2f2e41" d="m623.666 571.964-35.494-.001v-.449a13.816 13.816 0 0 1 13.815-13.815h.001l21.678.001ZM547.363 317.603l-16.215 112.314 4.04 118.334 24.349 1.939 7.614-106.123 19.382-59.174 11.395 84.352.468 79.006 25.143 1.939 8.769-166.1-6.45-72.236z"/>
  <circle cx="594.261" cy="141.578" r="25.651" fill="#ffb7b7"/>
  <path fill="#cbcbcb" d="m578.45 181.182-28.318 142.665s47.678 13.684 68.565 1.051 11.527-51.63 11.527-51.63L626.4 206.91l-7.069-16.78-5.998-13.853Z"/>
  <path fill="#2f2e41" d="m570.161 282.45 9.783-104.038-7.824 5.712-27.353 8.883-1.872 73.246-19.135 96.32s13.677 26.688 30.627-17.464Z"/>
  <path fill="#2f2e41" d="m557.931 203.962-13.164-10.955-29.587 64.272-33.016-7.232-1.56 19.499 47.836 18.931 32.598-45.382zM609.144 259.677l3.687-84.672 13.568 10.507 24.231 6.754-3.553 67.411 5.113 104.6-25.404 8.046-7.131-66.003z"/>
  <path fill="#ffb7b7" d="M610.774 327.837a11.04 11.04 0 0 1 14.689-8.412l24.896-30.315 6.03 19.473-24.567 25.802a11.099 11.099 0 0 1-21.048-6.548"/>
  <path fill="#2f2e41" d="m634.407 201.665 16.223-9.399 40.821 80.612-39.799 55.265-22.7-18.15 27.564-35.945-25.122-38.608zM618.387 121.07l1.244-2.502-6.258-3.11s-6.903-11.23-19.394-8.074-18.11 5.045-18.11 5.045l-6.242 3.14 3.133 3.117-5.62 1.89 3.754 1.865-4.368 2.51 2.352 12.872s3.905-9.763 11.414-6.032 21.244-1.928 21.244-1.928l11.932 23.092s2.462-8.095 6.85-5.936c0 0 11.213-17.857-1.931-25.948"/>
  <path fill="#fff" d="M462.573 158.704h-.164l-94.072 40.17-128.709 54.959a4.15 4.15 0 0 1-3.18.016L103.66 198.76l-96.382-39.99-.148-.065h-.164a5.74 5.74 0 0 0-5.736 5.736v249.11a5.74 5.74 0 0 0 5.736 5.735h455.608a5.74 5.74 0 0 0 5.736-5.736V164.44a5.74 5.74 0 0 0-5.736-5.736"/>
  <path fill="#3f3d56" d="M462.981 160.343a.8.8 0 0 1-.467-.147L235.89 2.37a4.11 4.11 0 0 0-4.694.008L6.207 160.195a.82.82 0 0 1-.942-1.342L230.255 1.036a5.75 5.75 0 0 1 6.573-.01L463.45 158.85a.82.82 0 0 1-.469 1.492"/>
  <path fill="#e6e6e6" d="M19.063 165.938 233.765 6.817 450.097 177.26l-205.27 121.686-111.443-25.402z"/>
  <path fill="#3B82F6" d="M142.791 374.107H36.723a4.955 4.955 0 1 1-.014-9.911H142.79a4.955 4.955 0 1 1 .015 9.91ZM74.778 352.801H36.723a4.955 4.955 0 1 1-.014-9.91h38.07a4.955 4.955 0 0 1 .014 9.91zM236.785 254.566a6.2 6.2 0 0 1-2.351-.46L102.02 199.162V27.184a5.743 5.743 0 0 1 5.736-5.736h254.026a5.743 5.743 0 0 1 5.736 5.736v172.1l-.25.106-128.061 54.689a6.2 6.2 0 0 1-2.422.487"/>
  <path fill="#3f3d56" d="M461.343 158.704h-.164l-94.071 40.17-128.709 54.959a4.15 4.15 0 0 1-3.18.016l-132.79-55.09-96.382-39.99-.147-.065h-.164A5.74 5.74 0 0 0 0 164.44v249.11a5.74 5.74 0 0 0 5.736 5.735h455.607a5.74 5.74 0 0 0 5.736-5.736V164.44a5.74 5.74 0 0 0-5.736-5.736m4.097 254.845a4.1 4.1 0 0 1-4.097 4.097H5.736a4.1 4.1 0 0 1-4.097-4.097V164.44a4.106 4.106 0 0 1 3.941-4.097l96.85 40.185 132.159 54.837a5.84 5.84 0 0 0 4.457-.024l128.062-54.69 94.4-40.308a4.11 4.11 0 0 1 3.932 4.097Z"/>
  <path fill="#fff" d="M216.17 85.735h-90.138a6.556 6.556 0 0 1 0-13.111h90.138a6.556 6.556 0 0 1 0 13.11M169.462 57.874h-43.43a6.556 6.556 0 0 1 0-13.111h43.43a6.556 6.556 0 0 1 0 13.11M302.185 151.29H164.52a6.556 6.556 0 0 1 0-13.111h137.665a6.556 6.556 0 0 1 0 13.11M302.185 181.609H164.52a6.556 6.556 0 1 1 0-13.111h137.665a6.556 6.556 0 1 1 0 13.11"/>
  <path fill="#cbcbcb" d="M702.817 573h-263a1 1 0 0 1 0-2h263a1 1 0 0 1 0 2M243.817 573h-97a1 1 0 1 1 0-2h97a1 1 0 0 1 0 2"/>
  <path fill="#e6e6e6" d="M182.484 542.082a21.57 21.57 0 0 0 18.193-10.79c4.664-8.308 3.243-18.555 1.682-27.953l-4.609-27.797-7.98 11.497c-5.74 8.267-11.588 16.772-14.038 26.534s-.807 21.205 6.666 27.946" data-name="Path 461"/>
  <path fill="#f2f2f2" d="M195.222 573.034c-4.093-7.539-8.255-15.167-10.524-23.492-2.013-7.393-2.468-15.185-.193-22.574a35.3 35.3 0 0 1 5.566-10.86c.646-.852 1.93.194 1.288 1.043a33.5 33.5 0 0 0-6.752 19.642c-.107 7.885 2.285 15.534 5.507 22.65 1.947 4.305 4.197 8.46 6.45 12.612a.854.854 0 0 1-.18 1.158.833.833 0 0 1-1.16-.182Z" data-name="Path 462"/>
</svg>
