<svg xmlns="http://www.w3.org/2000/svg" width="800" height="661.187" viewBox="0 0 800 661.187">
  <g transform="translate(-604 -249.388)">
    <path fill="#cbcbcb" d="M1403.154 905.274H604.847c-.468 0-.847-.5-.847-1.126s.379-1.126.847-1.126h798.307c.467 0 .847.5.847 1.126s-.38 1.126-.847 1.126"/>
    <path fill="#ed9da0" d="m879.206 318.765 23.847 6.653-6.675 24.093-30.4-5.01ZM749.023 829.795l17.367 13.085-13.733 18.227-17.367-13.085z"/>
    <path fill="#090814" d="m725.911 866.945 38.746 29.193a28 28 0 0 0 11.274 5.06l9.732 1.945a5.371 5.371 0 0 0 5.313-8.538l-11.66-15.178-15.23-32.247-.09.082c-2.27 2.032-5.714 5.09-5.975 5.24-4.817 1.014-8.5.378-10.95-1.89-4.273-3.955-3.324-11.615-3.314-11.692l.008-.059-.05-.03a3.84 3.84 0 0 0-3.36-.497c-2.255.797-3.458 3.732-3.63 4.182-2.197.284-7.97 6.762-8.434 7.29-3.286.56-5.558 1.769-6.755 3.588a7.46 7.46 0 0 0-.658 6.073 13.55 13.55 0 0 0 5.027 7.48Z"/>
    <path fill="#ed9da0" d="M892.391 859.714h22.73v23.856h-22.73z"/>
    <path fill="#090814" d="M896.463 905.271h50.712a29.25 29.25 0 0 0 12.6-2.87l9.349-4.493a5.614 5.614 0 0 0-.935-10.471l-19.286-5.337-33-17.343-.025.125c-.617 3.125-1.573 7.846-1.692 8.133-3.384 3.877-6.86 5.663-10.331 5.31-6.055-.614-10.081-7.606-10.121-7.677l-.03-.054-.062.007a4.02 4.02 0 0 0-3.117 1.7c-1.382 2.083-.539 5.291-.4 5.775-1.655 1.618-2.4 10.658-2.454 11.391-2.392 2.535-3.529 4.973-3.384 7.245a7.8 7.8 0 0 0 3.271 5.482 14.16 14.16 0 0 0 8.9 3.082Z"/>
    <path fill="#3B82F6" d="M1283.232 648.109H985.593a8.975 8.975 0 0 1-8.965-8.965V538.736a8.975 8.975 0 0 1 8.965-8.965h297.639a8.975 8.975 0 0 1 8.965 8.965v100.408a8.975 8.975 0 0 1-8.965 8.965"/>
    <path fill="#f2f2f2" d="M1023.247 556.665h78.892v8.965h-78.892z"/>
    <circle cx="5.379" cy="5.379" r="5.379" fill="#f2f2f2" transform="translate(1200.754 556.665)"/>
    <circle cx="5.379" cy="5.379" r="5.379" fill="#f2f2f2" transform="translate(1218.684 556.665)"/>
    <circle cx="5.379" cy="5.379" r="5.379" fill="#f2f2f2" transform="translate(1236.613 556.665)"/>
    <path fill="#e6e6e6" d="M1283.232 775.412H985.593a8.976 8.976 0 0 1-8.965-8.965V666.039a8.975 8.975 0 0 1 8.965-8.965h297.639a8.975 8.975 0 0 1 8.965 8.965v100.408a8.975 8.975 0 0 1-8.965 8.965"/>
    <path fill="#3B82F6" d="M1023.247 683.969h78.892v8.965h-78.892z"/>
    <circle cx="5.379" cy="5.379" r="5.379" fill="#3B82F6" transform="translate(1200.754 683.969)"/>
    <circle cx="5.379" cy="5.379" r="5.379" fill="#3B82F6" transform="translate(1218.684 683.969)"/>
    <circle cx="5.379" cy="5.379" r="5.379" fill="#3B82F6" transform="translate(1236.613 683.969)"/>
    <path fill="#e6e6e6" d="M1283.232 902.716H985.593a8.976 8.976 0 0 1-8.965-8.965V793.342a8.975 8.975 0 0 1 8.965-8.965h297.639a8.975 8.975 0 0 1 8.965 8.965v100.409a8.975 8.975 0 0 1-8.965 8.965"/>
    <path fill="#3B82F6" d="M1023.247 811.273h78.892v8.965h-78.892z"/>
    <circle cx="5.379" cy="5.379" r="5.379" fill="#3B82F6" transform="translate(1200.754 811.273)"/>
    <circle cx="5.379" cy="5.379" r="5.379" fill="#3B82F6" transform="translate(1218.684 811.273)"/>
    <circle cx="5.379" cy="5.379" r="5.379" fill="#3B82F6" transform="translate(1236.613 811.273)"/>
    <path fill="#090814" d="m1171.026 431.723-.329-.243-.008-.006a4.027 4.027 0 0 0-5.634.832l-66.995 90.2h-7.371v-1.732a1.61 1.61 0 0 0-1.611-1.611h-4.4a1.61 1.61 0 0 0-1.611 1.611v1.732h-2.541v-1.732a1.61 1.61 0 0 0-1.611-1.611h-4.4a1.61 1.61 0 0 0-1.611 1.611v1.732h-2.537v-1.732a1.61 1.61 0 0 0-1.611-1.611h-4.4a1.61 1.61 0 0 0-1.611 1.611v1.732h-2.545v-1.732a1.61 1.61 0 0 0-1.611-1.611h-4.4a1.61 1.61 0 0 0-1.611 1.611v1.732h-2.537v-1.732a1.61 1.61 0 0 0-1.611-1.611h-4.4a1.61 1.61 0 0 0-1.611 1.611v1.732h-2.545v-1.732a1.61 1.61 0 0 0-1.611-1.611h-4.4a1.61 1.61 0 0 0-1.611 1.611v1.732h-2.545v-1.732a1.61 1.61 0 0 0-1.611-1.611h-4.4a1.61 1.61 0 0 0-1.611 1.611v1.732h-2.537v-1.732a1.61 1.61 0 0 0-1.611-1.611h-4.4a1.61 1.61 0 0 0-1.611 1.611v1.732h-2.545v-1.732a1.61 1.61 0 0 0-1.611-1.611h-4.4a1.61 1.61 0 0 0-1.611 1.611v1.732h-2.537v-1.732a1.61 1.61 0 0 0-1.611-1.611h-4.4a1.61 1.61 0 0 0-1.611 1.611v1.732h-3.189a4.027 4.027 0 0 0-4.027 4.027v3.842a4.027 4.027 0 0 0 4.027 4.027h108.981a6 6 0 0 0 5.875-4.782l.042.03 68.543-92.287.006-.008a4.03 4.03 0 0 0-.832-5.634Z"/>
    <path fill="#3B82F6" d="M821.266 409.142s-10.181-7.8-10.181 11.252l-1.607 62.96 17.95 59.477 10.449-19.29-4.287-41.795Z"/>
    <path fill="#090814" d="M930.17 581.348s11.806 57.493-3.148 104.676l-8.063 175.636-30.5 3.415-10.627-134.583-10.232-66.9-21.25 61-70.046 129.071-32.269-25.185s35.759-97.57 62.176-118.056l13.249-150.9Z"/>
    <circle cx="34.55" cy="34.55" r="34.55" fill="#ed9da0" transform="rotate(-61.337 687.248 -558.16)"/>
    <path fill="#090814" d="M891.809 306.178c4.142.539 7.266-3.7 8.715-7.616s2.553-8.477 6.154-10.593c4.92-2.891 11.214.586 16.84-.368 6.353-1.077 10.484-7.81 10.808-14.246s-2.237-12.626-4.75-18.559l-.877 7.374a14.62 14.62 0 0 0-6.39-12.782l1.131 10.821a11.485 11.485 0 0 0-13.212-9.5l.178 6.447c-7.338-.873-14.74-1.746-22.1-1.082s-14.771 2.993-20.349 7.84c-8.344 7.25-11.391 19.189-10.368 30.2s5.566 21.346 10.3 31.334c1.191 2.513 2.839 5.349 5.6 5.669 2.482.288 4.754-1.787 5.525-4.164a15.1 15.1 0 0 0-.067-7.415c-.7-3.71-1.578-7.5-.922-11.219s3.331-7.391 7.078-7.847 7.582 3.828 5.78 7.145Z"/>
    <path fill="#cbcbcb" d="m932.309 596.722-115.328-7.441 8.681-35.962 105.406 23.562Z"/>
    <path fill="#3B82F6" d="m861.186 344.842 7.234-10.043s8.085 2.748 29.738 13.526l1.53 9.409 37.586 231.177-68.318-2.951-18.6-.4-6.088-13.648-7.508 13.358-18.168-.387-18.486-10.717 18.218-55.726 5.894-50.9-9.113-47.95s-11.462-44.038 32.686-67.782Z"/>
    <path fill="#ed9da0" d="M1026.725 519.845a11.808 11.808 0 0 1-14.685-10.594l-40.532-10.857 16.305-14.478 35.99 12.529a11.872 11.872 0 0 1 2.922 23.4"/>
    <path fill="#3B82F6" d="M997.017 513.716a6.92 6.92 0 0 1-5.615.446l-66.676-25.306a71.2 71.2 0 0 1-38.321-32.3l-27.805-49.6a22.256 22.256 0 0 1 33.208-29.641l48.126 76.28 60.566 35.509a6.93 6.93 0 0 1 2.947 7.371l-3.012 12.763a6.9 6.9 0 0 1-2.1 3.547 6.9 6.9 0 0 1-1.316.932Z"/>
  </g>
</svg>
