<svg xmlns="http://www.w3.org/2000/svg" width="787.827" height="453.112" viewBox="0 0 787.827 453.112">
  <circle cx="406.691" cy="6.467" r="6.467" fill="#f2f2f2"/>
  <circle cx="406.691" cy="32.24" r="6.467" fill="#f2f2f2"/>
  <circle cx="433.691" cy="6.467" r="6.467" fill="#f2f2f2"/>
  <circle cx="433.691" cy="32.24" r="6.467" fill="#f2f2f2"/>
  <circle cx="460.691" cy="6.467" r="6.467" fill="#f2f2f2"/>
  <circle cx="460.691" cy="32.24" r="6.467" fill="#f2f2f2"/>
  <circle cx="460.691" cy="58.013" r="6.467" fill="#f2f2f2"/>
  <circle cx="460.691" cy="83.787" r="6.467" fill="#f2f2f2"/>
  <circle cx="487.691" cy="6.467" r="6.467" fill="#f2f2f2"/>
  <circle cx="487.691" cy="32.24" r="6.467" fill="#f2f2f2"/>
  <circle cx="487.691" cy="58.013" r="6.467" fill="#f2f2f2"/>
  <circle cx="487.691" cy="83.787" r="6.467" fill="#f2f2f2"/>
  <circle cx="514.691" cy="6.467" r="6.467" fill="#f2f2f2"/>
  <circle cx="514.691" cy="32.24" r="6.467" fill="#f2f2f2"/>
  <circle cx="541.691" cy="6.467" r="6.467" fill="#f2f2f2"/>
  <circle cx="541.691" cy="32.24" r="6.467" fill="#f2f2f2"/>
  <path fill="#3f3d56" d="M739.114 341.258h-48.01c0 1.38-49.48 2.5-49.48 2.5a13 13 0 0 0-2.11 2 12.4 12.4 0 0 0-2.9 8v2a12.505 12.505 0 0 0 12.5 12.5h90a12.51 12.51 0 0 0 12.5-12.5v-2a12.517 12.517 0 0 0-12.5-12.5"/>
  <path fill="#3f3d56" d="M688.109 367.762h13v84h-13z"/>
  <path fill="#3f3d56" d="M738.11 451.305c0 1.405-19.7.543-44 .543s-44 .862-44-.543 19.699-12.543 44-12.543 44 11.138 44 12.543"/>
  <path fill="#ffb8b8" d="m629.1 440.257-12.26-.001-5.833-47.288 18.095.001z"/>
  <path fill="#2f2e41" d="M608.083 436.753h23.644v14.887h-38.531a14.887 14.887 0 0 1 14.887-14.887"/>
  <path fill="#ffb8b8" d="m609.962 433.414-11.697-3.671 8.592-46.865 17.264 5.418z"/>
  <path fill="#2f2e41" d="m590.958 423.78 22.56 7.079-4.458 14.204-36.763-11.537a14.887 14.887 0 0 1 18.661-9.747M706.28 333.061a38 38 0 0 0-1.52-7.02l-2.29-2.88-5.96-7.48-.26.01c-.44.02-2.27.12-5.1.34h-.03c-1.75.14-3.89.32-6.32.55-.64.07-1.31.13-2 .2v10.44h12.5a2.504 2.504 0 0 1 2.48 2.18c.01.11.02.21.02.32a2.5 2.5 0 0 1-2.5 2.5h-72.6a28 28 0 0 0-2.66 2 14.9 14.9 0 0 0-5.25 7.86c-4.24 18.64-11.97 53.4-14.25 63.61a4.54 4.54 0 0 0 1.35 4.28 4.4 4.4 0 0 0 1.47.91l9.02 3.38a4.8 4.8 0 0 0 1.15.27c.05 0 .09.01.14.01a3 3 0 0 0 .28.01 4.53 4.53 0 0 0 4.21-2.9l7.12-18.68 10.97-28.8 4.34-11.39c5.03 1.18 47.23 10.52 61.36-4.53a16.1 16.1 0 0 0 3.24-5.11 20.8 20.8 0 0 0 1.09-10.08"/>
  <path fill="#2f2e41" d="M718.52 335.781c-.22-.89-.47-1.81-.76-2.74l-8.25-10.36-.26.01c-.52.03-2.99.16-6.78.47-4.3.36-10.31.94-17.06 1.85-.2.02-.41.05-.61.08-.66.09-1.33.18-2 .28v1.85h12.5a2.504 2.504 0 0 1 2.48 2.18c.01.11.02.21.02.32a2.5 2.5 0 0 1-2.5 2.5h-44.18c-1.93.63-3.79 1.29-5.57 2-9.34 3.7-16.33 8.55-17.76 14.86-.48 2.12-1.01 4.45-1.57 6.93-2.08 9.22-4.61 20.51-6.9 30.77v.01c-.47 2.12-.94 4.18-1.39 6.18-1.91 8.6-3.53 15.89-4.39 19.72l-.06.32v.02a4.67 4.67 0 0 0 .28 2.29l.01.01v.01a4.4 4.4 0 0 0 1.3 1.79 4.6 4.6 0 0 0 1.29.75l9.02 3.38a4.6 4.6 0 0 0 1.57.29 4.43 4.43 0 0 0 2.15-.55 4.5 4.5 0 0 0 2.06-2.35l19.42-50.96 3.01-7.91c5.03 1.18 47.23 10.51 61.36-4.53a16.9 16.9 0 0 0 4.48-11.07 29.7 29.7 0 0 0-.91-8.4"/>
  <path fill="#3B82F6" d="M717.41 247.561c-.16-.19-.33-.38-.51-.56a24.47 24.47 0 0 0-20.97-7.39 79 79 0 0 0-9.91 1.95 25 25 0 0 0-11.18 6.27 24.41 24.41 0 0 0-7.41 18.2c.04 1.37.05 2.77.03 4.19 0 .66-.01 1.33-.02 2h9.86a5.3 5.3 0 0 1 1.27.15 5.51 5.51 0 0 1 4.23 5.35v46.52c.67.19 1.34.38 2 .58.21.07.41.13.61.19.23.07.46.14.68.21q3.045.945 5.95 2h3.26a2.504 2.504 0 0 1 2.48 2.18 181.364 181.364 0 0 1 8.5 3.66c2.71 1.24 5.12 2.42 7.14 3.45a4.6 4.6 0 0 0 2.05.5 4.4 4.4 0 0 0 2.6-.86 6 6 0 0 0 .45-.37 4.5 4.5 0 0 0 1.37-3.98 128 128 0 0 1-.9-23.7c.28-6.65.88-13.47 1.66-20.06.42-3.57.89-7.07 1.38-10.44.47-3.22.97-6.31 1.46-9.23a24.6 24.6 0 0 0-6.08-20.81"/>
  <path fill="#3B82F6" d="M676.42 248.381a12 12 0 0 0-1.58-.55 11.5 11.5 0 0 0-13.54 6.53l-6.87 15.86-.86 2h23.73a5.3 5.3 0 0 1 1.27.15l.8-1.85 3.04-7.02a11.51 11.51 0 0 0-5.99-15.12"/>
  <circle cx="697.756" cy="207.242" r="24.561" fill="#ffb8b8"/>
  <path fill="#ffb8b8" d="m722.03 277.601-14.02.38-1.02 9.85-.23 2.28-21.96 9.86-2 .9v17.53l2-.57 6.32-1.8h.03l27.84-7.93.32-.09a10.88 10.88 0 0 0 7.86-10.35l.07-11.63.06-8.57Z"/>
  <path fill="#3B82F6" d="M726.59 258.121a11.502 11.502 0 0 0-22.96 1.41l1.53 24.96a4.49 4.49 0 0 0 1.83 3.34 4.43 4.43 0 0 0 2.94.87l10.72-.66 3.25-.2a4.39 4.39 0 0 0 3.1-1.51 3 3 0 0 0 .24-.3 4.47 4.47 0 0 0 .88-2.96Z"/>
  <path fill="#3f3d56" d="M686.09 325.221h-1.29v-.13c-.66.09-1.33.18-2 .28v1.85h9.24q-2.91-1.05-5.95-2m0 0h-1.29v-.13c-.66.09-1.33.18-2 .28v1.85h9.24q-2.91-1.05-5.95-2m9.21 0h-10.5v-47.5a7.51 7.51 0 0 0-5.43-7.2 7 7 0 0 0-2.07-.3h-89a7.51 7.51 0 0 0-7.5 7.5v49a7.503 7.503 0 0 0 7.5 7.5h107a4.505 4.505 0 0 0 4.47-4.01 4 4 0 0 0 .03-.49 4.507 4.507 0 0 0-4.5-4.5m2.5 4.5a2.5 2.5 0 0 1-2.5 2.5h-107a5.503 5.503 0 0 1-5.5-5.5v-49a5.503 5.503 0 0 1 5.5-5.5h89a5.3 5.3 0 0 1 1.27.15 5.51 5.51 0 0 1 4.23 5.35v49.5h12.5a2.504 2.504 0 0 1 2.48 2.18c.01.11.02.21.02.32m-11.71-4.5h-1.29v-.13c-.66.09-1.33.18-2 .28v1.85h9.24q-2.91-1.05-5.95-2"/>
  <circle cx="632.797" cy="302.223" r="6" fill="#3B82F6"/>
  <path fill="#2f2e41" d="M692.512 197.499c-5.705 5.096-13.353 10.566-20.339 6.832-4.587-2.451-6.629-7.828-5.558-12.917 1.927-9.152 9.839-14.097 17.5-18.095 9.958-5.197 20.948-9.728 32.1-8.377s22.047 10.565 21.52 21.786c-.423 9.024-7.792 17.442-5.46 26.169 2.348 8.783 13.01 12.184 22.09 12.631s19.077-.327 26.28 5.22c9.19 7.076 9.042 21.872 2.5 31.449s-17.588 14.966-28.438 19.062c-14.376 5.428-30.178 9.35-45.017 5.36s-27.83-18.228-25.654-33.44c.92-6.425 4.3-12.193 7.562-17.804s6.544-11.463 7.229-17.917c.57-5.379-1.138-11.317-5.105-14.781a4.44 4.44 0 0 1-1.257-5.067Z"/>
  <path fill="#3f3d56" d="M1.19 453.112h773.295a1.19 1.19 0 1 0 0-2.381H1.19a1.19 1.19 0 1 0 0 2.381M40.43 353.758v2a12.51 12.51 0 0 0 12.5 12.5h90a12.505 12.505 0 0 0 12.5-12.5v-2a12.4 12.4 0 0 0-2.9-8 13 13 0 0 0-2.11-2s-49.48-1.12-49.48-2.5H52.93a12.517 12.517 0 0 0-12.5 12.5"/>
  <path fill="#3f3d56" d="M103.935 451.762h-13v-84h13z"/>
  <path fill="#3f3d56" d="M53.935 451.305c0 1.405 19.7.543 44 .543s44 .862 44-.543-19.7-12.543-44-12.543-44 11.138-44 12.543"/>
  <path fill="#a0616a" d="M163.53 441.018h12.26l5.832-47.288-18.094.001z"/>
  <path fill="#2f2e41" d="m199.434 452.4-38.53.003-.001-14.887 23.644-.001a14.887 14.887 0 0 1 14.887 14.886"/>
  <path fill="#a0616a" d="m182.668 434.176 11.697-3.671-8.592-46.865-17.264 5.418z"/>
  <path fill="#2f2e41" d="m220.333 434.287-36.763 11.537-4.458-14.204 22.56-7.079a14.887 14.887 0 0 1 18.66 9.746M174.466 412.411l-22.427-58.871c-5.032 1.182-47.227 10.519-61.36-4.528-4.842-5.158-5.787-12.63-2.807-22.208l8.248-10.365.256.014c3.119.164 76.435 4.274 81.461 26.389 4.238 18.644 11.977 53.405 14.248 63.615a4.516 4.516 0 0 1-2.814 5.184l-9.02 3.381a4.5 4.5 0 0 1-1.572.287 4.51 4.51 0 0 1-4.213-2.898"/>
  <path fill="#2f2e41" d="m161.466 419.411-22.427-58.871c-5.032 1.182-47.227 10.518-61.36-4.528-4.842-5.158-5.787-12.63-2.807-22.208l8.248-10.365.256.014c3.119.164 76.435 4.274 81.461 26.389 4.238 18.644 11.977 53.405 14.248 63.615a4.516 4.516 0 0 1-2.814 5.184l-9.02 3.381a4.5 4.5 0 0 1-1.572.287 4.51 4.51 0 0 1-4.213-2.898"/>
  <path fill="#a0616a" d="M141.292 305.193a19.2 19.2 0 0 1-16.484-9.371l-7.123-12.066 16.93-9.253 7.188 9.856 48.774-5.139a10.6 10.6 0 0 1 .799-1.234 11.02 11.02 0 0 1 7.873-4.314 10.9 10.9 0 0 1 8.493 3.012 11.02 11.02 0 0 1 1.86 13.564 11.004 11.004 0 0 1-16.114 3.15 10 10 0 0 1-.823-.7l-46.714 11.911a18.8 18.8 0 0 1-4.659.584"/>
  <path fill="#ccc" d="M74.555 336.912a4.51 4.51 0 0 1-1.819-4.349c2.783-18.342-.418-44.619-3.594-63.432a24.795 24.795 0 0 1 27.56-28.762 80 80 0 0 1 9.912 1.954 24.596 24.596 0 0 1 18.582 24.468c-.475 18.154 3.211 40.806 4.818 49.701a4.52 4.52 0 0 1-.833 3.51 4.4 4.4 0 0 1-3.096 1.75c-17.808 1.818-37.012 10.503-46.874 15.517a4.5 4.5 0 0 1-2.05.501 4.43 4.43 0 0 1-2.606-.858"/>
  <path fill="#ccc" d="M122.626 289.6a4.47 4.47 0 0 1-2.474-2.397l-9.931-22.942a11.5 11.5 0 1 1 21.107-9.136l9.932 22.942a4.506 4.506 0 0 1-2.342 5.917l-12.848 5.562a4.47 4.47 0 0 1-3.444.055"/>
  <circle cx="94.873" cy="208.003" r="24.561" fill="#a0616a"/>
  <path fill="#2f2e41" d="M80.03 229.824a3.974 3.974 0 0 1-5.69.327 44.4 44.4 0 0 1-12.672-16.549c-3.193-7.61-3.66-16.899-.027-24.033 3.072-6.03 8.587-9.87 14.092-13.007a23 23 0 0 1 6.848-2.894 9 9 0 0 1 7.154 1.406 7.54 7.54 0 0 1 2.878 7.228 22.35 22.35 0 0 1 9.802-7.357 11.37 11.37 0 0 1 7.554-.506c3.535 1.18 6.152 4.75 7.609 8.586a19.14 19.14 0 0 1 1.255 9.264 11.13 11.13 0 0 1-4.269 7.671c-2.884 1.99-6.6 1.788-9.953.907s-6.609-2.374-10.021-2.79-7.195.486-9.228 3.53c-1.432 2.143-1.769 4.967-2.061 7.658l-1.52 13.999a18.6 18.6 0 0 1-1.277 5.84 3.3 3.3 0 0 1-.473.72"/>
  <path fill="#ccc" d="M168.868 381.094h-39.872a4.25 4.25 0 0 1-3.356-1.626 4.32 4.32 0 0 1-.807-3.705 102.3 102.3 0 0 0 0-47.525 4.32 4.32 0 0 1 .807-3.704 4.25 4.25 0 0 1 3.356-1.627h39.872a4.3 4.3 0 0 1 4.237 3.606 167.5 167.5 0 0 1 0 50.976 4.3 4.3 0 0 1-4.237 3.605"/>
  <path fill="#fff" d="M138.266 344.584v-1.172a3.003 3.003 0 0 1 3-3h20.923a3.003 3.003 0 0 1 3 3v1.172a3.003 3.003 0 0 1-3 3h-20.923a3.003 3.003 0 0 1-3-3M138.266 356.929v-1.173a3.003 3.003 0 0 1 3-3h20.923a3.003 3.003 0 0 1 3 3v1.173a3.003 3.003 0 0 1-3 3h-20.923a3.003 3.003 0 0 1-3-3"/>
  <path fill="#3B82F6" d="M151.128 308.841a4.39 4.39 0 0 1-.82-3.766 104 104 0 0 0-.001-48.306 4.4 4.4 0 0 1 .821-3.766 4.32 4.32 0 0 1 3.41-1.652h40.528a4.37 4.37 0 0 1 4.306 3.665 170.2 170.2 0 0 1 0 51.813 4.37 4.37 0 0 1-4.306 3.665h-40.528a4.32 4.32 0 0 1-3.41-1.653"/>
  <path fill="#fff" d="M187.245 273.173h-21.35a3.003 3.003 0 0 1-3-3v-1.274a3.003 3.003 0 0 1 3-3h21.35a3.003 3.003 0 0 1 3 3v1.274a3.003 3.003 0 0 1-3 3M187.245 285.72h-21.35a3.003 3.003 0 0 1-3-3v-1.274a3.003 3.003 0 0 1 3-3h21.35a3.003 3.003 0 0 1 3 3v1.274a3.003 3.003 0 0 1-3 3"/>
  <path fill="#a0616a" d="M132.533 330.84a11.02 11.02 0 0 1-6.534-6.158 10 10 0 0 1-.359-1.02L73.318 308.77a10.88 10.88 0 0 1-7.861-10.342l-.128-20.202 19.286.516 1.257 12.134 44.74 20.087a10.6 10.6 0 0 1 1.312-.664 11.01 11.01 0 1 1 .61 20.541"/>
  <path fill="#ccc" d="M65.63 287.094a4.47 4.47 0 0 1-1.12-3.258l1.533-24.953A11.5 11.5 0 1 1 89 260.296l-1.533 24.952a4.506 4.506 0 0 1-4.768 4.216l-13.973-.86a4.47 4.47 0 0 1-3.096-1.51"/>
  <path fill="#3f3d56" d="M290.522 153.064h-82a9.01 9.01 0 0 1-9-9v-89a9.01 9.01 0 0 1 9-9h82a9.01 9.01 0 0 1 9 9v89a9.01 9.01 0 0 1-9 9m-82-105a7.01 7.01 0 0 0-7 7v89a7.01 7.01 0 0 0 7 7h82a7.01 7.01 0 0 0 7-7v-89a7.01 7.01 0 0 0-7-7ZM440.522 153.064h-82a9.01 9.01 0 0 1-9-9v-89a9.01 9.01 0 0 1 9-9h82a9.01 9.01 0 0 1 9 9v89a9.01 9.01 0 0 1-9 9m-82-105a7.01 7.01 0 0 0-7 7v89a7.01 7.01 0 0 0 7 7h82a7.01 7.01 0 0 0 7-7v-89a7.01 7.01 0 0 0-7-7Z"/>
  <path fill="#3B82F6" d="M225.037 83.064h-8a4.505 4.505 0 0 1-4.5-4.5v-8a4.505 4.505 0 0 1 4.5-4.5h8a4.505 4.505 0 0 1 4.5 4.5v8a4.505 4.505 0 0 1-4.5 4.5"/>
  <path fill="#ccc" d="M225.037 108.064h-8a4.505 4.505 0 0 1-4.5-4.5v-8a4.505 4.505 0 0 1 4.5-4.5h8a4.505 4.505 0 0 1 4.5 4.5v8a4.505 4.505 0 0 1-4.5 4.5"/>
  <path fill="#3B82F6" d="M283.507 78.2h-37.35a3.003 3.003 0 0 1-3-3v-1.273a3.003 3.003 0 0 1 3-3h37.35a3.003 3.003 0 0 1 3 3V75.2a3.003 3.003 0 0 1-3 3"/>
  <path fill="#ccc" d="M375.727 81.495h-8a4.505 4.505 0 0 1-4.5-4.5v-8a4.505 4.505 0 0 1 4.5-4.5h8a4.505 4.505 0 0 1 4.5 4.5v8a4.505 4.505 0 0 1-4.5 4.5M434.197 76.632h-37.35a3.003 3.003 0 0 1-3-3v-1.274a3.003 3.003 0 0 1 3-3h37.35a3.003 3.003 0 0 1 3 3v1.274a3.003 3.003 0 0 1-3 3"/>
  <path fill="#3B82F6" d="M434.197 100.632h-69.35a3.003 3.003 0 0 1-3-3v-1.274a3.003 3.003 0 0 1 3-3h69.35a3.003 3.003 0 0 1 3 3v1.274a3.003 3.003 0 0 1-3 3"/>
  <path fill="#ccc" d="M434.197 117.632h-69.35a3.003 3.003 0 0 1-3-3v-1.274a3.003 3.003 0 0 1 3-3h69.35a3.003 3.003 0 0 1 3 3v1.274a3.003 3.003 0 0 1-3 3M434.197 134.632h-69.35a3.003 3.003 0 0 1-3-3v-1.274a3.003 3.003 0 0 1 3-3h69.35a3.003 3.003 0 0 1 3 3v1.274a3.003 3.003 0 0 1-3 3"/>
  <path fill="#3f3d56" d="M590.522 153.064h-82a9.01 9.01 0 0 1-9-9v-89a9.01 9.01 0 0 1 9-9h82a9.01 9.01 0 0 1 9 9v89a9.01 9.01 0 0 1-9 9m-82-105a7.01 7.01 0 0 0-7 7v89a7.01 7.01 0 0 0 7 7h82a7.01 7.01 0 0 0 7-7v-89a7.01 7.01 0 0 0-7-7Z"/>
  <path fill="#ccc" d="M584.197 76.632h-37.35a3.003 3.003 0 0 1-3-3v-1.274a3.003 3.003 0 0 1 3-3h37.35a3.003 3.003 0 0 1 3 3v1.274a3.003 3.003 0 0 1-3 3M584.197 100.632h-69.35a3.003 3.003 0 0 1-3-3v-1.274a3.003 3.003 0 0 1 3-3h69.35a3.003 3.003 0 0 1 3 3v1.274a3.003 3.003 0 0 1-3 3M584.197 117.632h-69.35a3.003 3.003 0 0 1-3-3v-1.274a3.003 3.003 0 0 1 3-3h69.35a3.003 3.003 0 0 1 3 3v1.274a3.003 3.003 0 0 1-3 3M584.197 134.632h-69.35a3.003 3.003 0 0 1-3-3v-1.274a3.003 3.003 0 0 1 3-3h69.35a3.003 3.003 0 0 1 3 3v1.274a3.003 3.003 0 0 1-3 3M283.507 103.2h-37.35a3.003 3.003 0 0 1-3-3v-1.273a3.003 3.003 0 0 1 3-3h37.35a3.003 3.003 0 0 1 3 3v1.274a3.003 3.003 0 0 1-3 3M225.037 133.064h-8a4.505 4.505 0 0 1-4.5-4.5v-8a4.505 4.505 0 0 1 4.5-4.5h8a4.505 4.505 0 0 1 4.5 4.5v8a4.505 4.505 0 0 1-4.5 4.5M283.507 128.2h-37.35a3.003 3.003 0 0 1-3-3v-1.273a3.003 3.003 0 0 1 3-3h37.35a3.003 3.003 0 0 1 3 3v1.274a3.003 3.003 0 0 1-3 3"/>
  <path fill="#3B82F6" d="M530.519 72.064q.002-.034.003-.069a9 9 0 0 0-9-9v9.069Z"/>
  <path fill="#ccc" d="M520.522 73.064v-9.069a9 9 0 1 0 8.997 9.069Z"/>
</svg>
