<?xml version="1.0" standalone="no"?>
<!DOCTYPE svg PUBLIC "-//W3C//DTD SVG 20010904//EN"
 "http://www.w3.org/TR/2001/REC-SVG-20010904/DTD/svg10.dtd">
<svg version="1.0" xmlns="http://www.w3.org/2000/svg"
 width="4096.000000pt" height="4096.000000pt" viewBox="0 0 4096.000000 4096.000000"
 preserveAspectRatio="xMidYMid meet">
<metadata>
Created by potrace 1.14, written by Peter Selinger 2001-2017
</metadata>
<g transform="translate(0.000000,4096.000000) scale(0.100000,-0.100000)"
fill="#000000" stroke="none">
<path d="M20407 38324 c-1 -1 -55 -5 -120 -8 -65 -4 -134 -9 -155 -11 -101
-12 -134 -17 -217 -30 -49 -8 -102 -17 -117 -20 -44 -8 -312 -76 -328 -82 -8
-4 -17 -7 -20 -8 -37 -9 -201 -69 -295 -108 -559 -229 -1080 -628 -1453 -1112
-183 -238 -331 -491 -449 -765 -87 -202 -172 -472 -212 -670 -19 -94 -21 -103
-31 -165 -9 -56 -14 -100 -25 -185 -18 -154 -23 -391 -12 -590 7 -127 13 -183
43 -380 5 -30 57 -266 69 -310 37 -139 129 -406 146 -425 5 -5 9 -15 9 -23 0
-24 176 -373 228 -452 9 -14 23 -37 32 -52 8 -16 52 -81 97 -145 605 -867
1569 -1423 2623 -1511 167 -14 582 -6 690 13 14 2 43 6 65 9 61 7 115 16 171
27 28 5 64 12 80 15 16 3 37 7 46 10 9 3 25 6 35 8 80 16 391 112 458 141 79
35 178 75 180 73 1 -2 14 -23 28 -48 64 -112 128 -221 172 -295 41 -69 45 -75
89 -152 22 -37 59 -102 84 -143 41 -69 132 -225 152 -260 5 -8 66 -113 137
-232 70 -120 133 -226 138 -235 6 -10 28 -49 50 -86 22 -37 50 -85 61 -105 12
-20 68 -116 125 -212 56 -96 112 -192 123 -212 12 -20 51 -88 87 -150 37 -62
75 -129 86 -148 11 -19 76 -132 145 -250 69 -118 143 -248 166 -288 l42 -73
-49 -62 c-52 -67 -127 -188 -155 -252 -10 -22 -23 -51 -30 -65 -6 -14 -23 -60
-36 -102 l-24 -78 -2811 0 -2810 0 -23 73 c-37 119 -156 366 -191 397 -4 3
-25 30 -48 61 -118 159 -309 313 -504 407 -92 45 -194 85 -246 97 -73 18 -165
37 -203 42 -105 14 -387 6 -452 -13 -17 -5 -42 -10 -90 -19 -45 -8 -199 -65
-278 -103 -144 -68 -332 -206 -425 -311 -16 -19 -43 -48 -58 -65 -50 -56 -155
-220 -196 -306 -22 -47 -53 -124 -68 -172 l-28 -88 -1666 0 -1666 0 -13 93
c-7 50 -14 101 -16 112 -2 11 -7 34 -9 50 -77 441 -264 911 -516 1294 -27 41
-49 77 -49 82 0 4 -3 9 -7 11 -5 2 -35 39 -67 83 -180 242 -468 535 -681 691
-22 16 -42 31 -45 35 -3 3 -41 30 -85 60 -399 273 -810 452 -1265 553 -63 14
-135 28 -160 32 -25 3 -54 7 -65 9 -11 2 -42 6 -70 10 -27 3 -61 8 -75 10
-148 23 -614 23 -750 1 -14 -3 -50 -7 -80 -10 -104 -11 -359 -60 -470 -92
-194 -55 -289 -88 -515 -181 -72 -30 -304 -152 -398 -210 -263 -162 -454 -315
-682 -547 -358 -362 -623 -785 -802 -1276 -30 -83 -106 -337 -117 -394 -14
-67 -27 -135 -32 -161 -2 -16 -7 -37 -9 -45 -2 -8 -7 -40 -10 -70 -3 -30 -8
-62 -10 -70 -2 -8 -7 -46 -10 -85 -4 -38 -9 -86 -11 -105 -5 -48 -5 -455 0
-506 15 -148 37 -323 51 -399 76 -403 233 -819 434 -1150 97 -160 222 -339
305 -436 17 -19 50 -58 72 -85 58 -68 224 -235 320 -319 345 -307 757 -545
1204 -698 147 -51 369 -108 505 -132 17 -2 39 -7 50 -9 136 -26 341 -41 580
-41 281 0 456 16 665 60 14 3 41 8 60 11 254 42 726 219 990 371 427 246 773
543 1059 911 74 96 221 305 221 316 0 3 16 30 35 61 41 63 170 319 210 415 74
175 178 508 200 642 3 18 8 40 10 48 2 8 7 31 10 50 3 19 10 60 15 90 5 30 12
77 15 104 3 27 8 52 10 55 2 3 751 6 1665 6 l1662 0 37 -105 c79 -223 195
-413 322 -531 28 -25 28 -26 10 -55 -9 -16 -33 -58 -51 -94 -19 -36 -39 -72
-45 -80 -7 -8 -26 -40 -42 -70 -35 -65 -351 -626 -498 -885 -56 -99 -113 -200
-127 -225 -14 -25 -55 -99 -93 -165 -37 -66 -100 -178 -140 -250 -40 -71 -82
-146 -94 -165 -11 -19 -29 -51 -39 -70 -10 -19 -37 -67 -59 -105 -23 -39 -55
-95 -71 -125 -16 -30 -76 -136 -132 -235 -56 -99 -116 -205 -133 -235 -16 -30
-100 -179 -185 -330 -85 -151 -164 -291 -175 -310 -10 -19 -36 -64 -57 -100
-20 -36 -48 -85 -62 -110 -49 -88 -172 -307 -253 -450 -45 -80 -93 -165 -107
-190 -14 -25 -65 -115 -113 -200 -48 -85 -121 -216 -163 -290 -41 -74 -76
-136 -77 -137 -1 -2 -37 4 -81 12 -374 72 -737 3 -1058 -202 -39 -25 -73 -49
-76 -52 -3 -4 -21 -18 -40 -31 -43 -31 -183 -170 -231 -230 -142 -178 -247
-408 -295 -650 -19 -93 -25 -351 -11 -454 25 -181 101 -398 196 -558 50 -86
147 -216 187 -254 l22 -21 -140 -249 c-77 -137 -153 -274 -170 -304 -17 -30
-38 -68 -48 -85 -10 -16 -29 -50 -42 -75 -14 -25 -60 -105 -102 -179 -42 -73
-76 -135 -76 -137 0 -1 -23 -42 -51 -91 -50 -85 -86 -150 -137 -243 -14 -25
-28 -49 -32 -55 -4 -5 -21 -35 -37 -65 -45 -82 -81 -148 -123 -220 -104 -180
-170 -299 -170 -306 0 -4 -6 -15 -14 -23 -7 -9 -28 -43 -46 -76 -19 -33 -92
-163 -163 -290 -71 -126 -141 -250 -155 -275 -14 -25 -65 -117 -115 -205 -49
-88 -91 -162 -93 -164 -2 -2 -23 4 -46 13 -156 64 -465 162 -571 181 -12 3
-42 9 -67 15 -122 27 -321 55 -470 65 -79 6 -396 6 -465 1 -103 -8 -192 -17
-212 -20 -11 -3 -44 -7 -74 -11 -330 -41 -763 -180 -1099 -353 -179 -92 -439
-258 -559 -357 -342 -282 -555 -514 -763 -835 -172 -265 -324 -583 -414 -870
-4 -14 -9 -29 -11 -35 -7 -23 -83 -318 -88 -343 -14 -71 -45 -285 -50 -347 -3
-38 -8 -92 -10 -120 -6 -63 -6 -400 -1 -440 2 -16 7 -66 11 -110 3 -44 9 -96
11 -115 10 -64 34 -215 38 -235 28 -127 37 -168 50 -215 148 -545 401 -1017
771 -1440 53 -61 248 -253 314 -310 356 -307 757 -535 1205 -684 127 -43 385
-112 444 -120 15 -2 43 -6 62 -10 61 -11 94 -16 145 -22 28 -3 61 -8 75 -10
104 -18 468 -24 650 -11 106 8 119 9 245 28 39 6 84 13 100 15 206 31 586 145
790 239 31 14 58 25 60 25 7 0 173 83 230 115 186 103 420 262 546 369 163
140 286 259 380 366 90 104 100 115 142 170 23 30 45 57 48 60 3 3 21 28 39
55 19 28 37 51 42 53 4 2 8 8 8 14 0 5 11 24 24 41 82 109 223 374 313 587
156 369 243 729 270 1120 15 210 4 555 -22 715 -2 17 -7 48 -10 70 -10 69 -36
196 -62 305 -25 106 -120 403 -147 462 -8 18 -27 62 -41 98 -98 238 -291 561
-474 790 -172 216 -435 472 -643 624 l-67 49 23 41 c13 23 42 73 63 111 22 39
52 90 65 115 14 25 81 144 150 265 69 121 136 240 150 265 14 25 35 63 48 85
13 22 51 90 85 150 34 61 72 128 85 150 13 22 34 60 48 85 13 25 28 50 32 55
4 6 24 42 45 80 21 39 84 151 140 250 56 99 157 276 224 394 66 117 121 217
121 222 0 5 5 9 10 9 6 0 10 5 10 10 0 6 35 73 78 148 43 75 93 162 110 192
149 266 230 405 238 403 5 -1 43 -8 84 -17 199 -40 385 -40 595 3 l85 17 43
-75 c66 -118 81 -143 103 -181 12 -19 108 -186 214 -370 106 -184 200 -346
208 -360 9 -14 17 -27 17 -30 0 -3 27 -50 59 -105 33 -55 89 -152 126 -215
112 -194 164 -284 177 -305 7 -11 16 -27 20 -35 4 -8 49 -87 100 -174 51 -87
93 -160 93 -162 0 -2 25 -44 55 -95 30 -50 55 -93 55 -95 0 -2 14 -27 31 -56
18 -29 41 -69 52 -88 10 -19 61 -107 112 -195 194 -334 389 -672 413 -714 41
-74 82 -145 92 -161 10 -17 64 -109 92 -157 10 -18 26 -48 37 -65 10 -18 69
-121 131 -228 62 -107 147 -253 188 -325 41 -71 86 -150 100 -175 14 -25 35
-61 47 -80 12 -19 33 -56 47 -81 14 -25 54 -93 87 -151 l62 -105 -84 -84 c-96
-97 -122 -129 -183 -221 -131 -200 -203 -396 -234 -642 -9 -72 -6 -305 4 -353
4 -15 8 -41 10 -58 14 -102 63 -250 132 -392 156 -319 419 -562 761 -700 90
-36 236 -77 314 -88 24 -3 57 -8 72 -11 73 -15 310 -5 422 17 27 6 63 13 78
15 15 3 52 14 81 24 l53 18 34 -60 c19 -33 39 -67 44 -76 6 -10 41 -71 78
-137 37 -66 72 -127 77 -135 21 -34 170 -292 170 -295 0 -1 38 -68 85 -149 47
-80 85 -150 85 -156 0 -5 4 -10 8 -10 4 0 15 -15 23 -33 8 -17 66 -120 128
-227 105 -181 147 -254 175 -305 6 -11 13 -22 16 -25 3 -3 11 -16 18 -30 6
-14 26 -50 44 -81 28 -47 258 -449 349 -608 15 -25 84 -144 153 -265 122 -212
134 -236 119 -236 -5 0 -39 -25 -78 -56 -230 -182 -458 -414 -642 -654 -217
-284 -409 -653 -526 -1015 -36 -109 -101 -357 -111 -425 -3 -19 -8 -46 -10
-60 -6 -34 -24 -157 -30 -200 -26 -194 -26 -674 -1 -800 3 -14 7 -47 10 -75 2
-27 14 -97 24 -155 27 -145 30 -160 43 -205 6 -22 11 -44 12 -50 8 -33 32
-114 63 -210 96 -297 234 -582 412 -849 36 -55 71 -106 76 -115 6 -9 12 -18
16 -21 3 -3 18 -23 35 -45 102 -138 338 -391 480 -515 40 -36 223 -180 259
-206 210 -147 489 -305 665 -374 30 -12 66 -27 80 -33 14 -6 27 -11 30 -12 3
-1 12 -5 20 -8 28 -13 317 -106 341 -111 13 -2 62 -13 109 -25 47 -11 97 -23
113 -25 15 -3 54 -10 87 -16 94 -16 105 -18 161 -25 30 -3 70 -8 89 -10 55 -6
277 -17 365 -18 78 0 310 11 343 17 10 2 44 7 77 10 83 10 126 16 155 22 14 2
36 6 50 9 14 3 36 7 50 10 14 3 36 8 50 11 14 3 36 7 50 10 136 27 471 138
610 201 123 57 259 124 320 159 72 41 279 172 325 207 317 236 606 527 809
812 250 353 434 757 541 1185 18 74 37 153 40 175 4 22 9 51 11 65 2 14 6 34
8 45 2 11 7 45 11 75 4 30 9 66 11 80 25 161 25 644 -1 825 -2 17 -6 48 -9 70
-33 256 -141 649 -237 862 -10 24 -19 45 -19 48 0 11 -100 210 -158 315 -61
109 -205 332 -254 393 -13 16 -38 47 -56 70 -83 104 -114 138 -212 241 -91 94
-201 197 -306 286 -291 247 -735 492 -1121 619 -169 55 -410 114 -558 136 -22
3 -53 8 -70 10 -198 33 -709 39 -861 11 -10 -2 -50 -7 -89 -11 -38 -4 -73 -8
-76 -11 -3 -2 -24 -6 -47 -9 -22 -2 -83 -14 -134 -26 -51 -11 -100 -22 -108
-24 -57 -12 -161 -42 -278 -81 -136 -46 -153 -52 -246 -94 -39 -17 -51 -19
-58 -8 -4 7 -29 49 -55 93 -25 44 -70 121 -99 170 -142 244 -379 654 -396 685
-11 19 -29 51 -40 70 -46 80 -317 548 -336 580 -10 19 -70 122 -131 228 -61
106 -120 207 -130 225 -10 17 -38 66 -63 107 -24 41 -47 82 -51 90 -4 8 -17
31 -28 50 -12 19 -73 125 -136 235 -64 110 -123 211 -131 225 -47 74 -50 85
-28 112 42 51 52 64 83 113 31 50 51 85 103 180 27 50 71 171 84 231 l7 31
2805 0 c3031 0 2834 3 2834 -51 0 -12 3 -26 7 -30 4 -3 8 -13 9 -20 3 -21 80
-199 110 -252 139 -252 382 -482 638 -603 115 -54 264 -104 346 -117 19 -3 41
-7 48 -9 50 -17 300 -24 407 -11 275 33 543 148 760 326 213 175 375 414 456
673 l31 97 36 1 c166 3 3184 1 3187 -3 2 -2 7 -26 10 -53 6 -51 21 -146 30
-200 5 -26 27 -129 41 -187 2 -10 6 -27 8 -37 60 -270 222 -662 391 -945 88
-149 252 -378 340 -476 146 -162 216 -233 340 -345 341 -308 789 -568 1230
-713 111 -36 370 -105 440 -116 17 -2 44 -7 60 -10 206 -36 356 -49 590 -50
197 0 298 6 484 29 236 30 641 132 796 200 17 8 66 28 110 46 526 215 1041
610 1408 1082 81 103 224 314 269 397 89 162 112 208 162 316 86 192 194 510
221 654 3 14 7 36 10 50 3 14 7 35 10 48 2 13 6 31 9 40 3 9 7 39 11 66 3 27
8 52 9 55 2 3 7 40 11 81 4 41 9 83 11 93 20 106 20 600 -1 705 -2 10 -6 49
-9 87 -33 350 -159 782 -328 1120 -356 710 -915 1257 -1641 1604 -70 34 -133
61 -140 61 -7 0 -17 4 -22 9 -26 25 -470 167 -576 185 -19 3 -45 8 -59 11 -68
14 -190 35 -235 40 -27 4 -61 8 -75 11 -104 18 -510 24 -670 10 -182 -15 -361
-44 -520 -82 -58 -14 -114 -27 -126 -30 -58 -11 -295 -92 -414 -141 -121 -50
-283 -129 -425 -208 -93 -51 -329 -213 -440 -302 -152 -121 -412 -383 -531
-533 -297 -375 -508 -779 -637 -1220 -26 -87 -37 -130 -44 -164 -2 -11 -10
-45 -17 -75 -8 -31 -17 -72 -20 -91 -3 -19 -8 -46 -11 -60 -5 -25 -9 -51 -20
-140 -4 -25 -8 -55 -11 -68 l-4 -22 -1622 2 -1621 3 -24 70 c-24 73 -50 139
-85 215 -23 49 -116 196 -139 220 -8 8 -22 25 -31 38 -8 12 -36 45 -62 72
l-47 49 74 133 c41 73 89 160 107 193 18 33 44 77 57 97 12 21 23 39 23 42 0
2 25 48 56 102 31 55 68 122 83 149 15 28 40 71 54 98 15 26 38 67 52 92 51
92 79 142 120 215 23 41 108 192 187 335 80 143 156 278 168 300 70 123 92
163 106 190 8 17 24 46 36 65 11 19 33 58 48 85 15 28 55 99 89 159 33 60 61
111 61 113 0 2 10 20 23 41 13 20 40 66 59 102 20 36 66 119 103 185 37 66 90
161 117 210 67 119 91 162 118 210 48 85 164 292 185 330 12 22 44 81 72 130
28 50 63 113 78 140 15 28 68 121 116 208 49 87 89 160 89 162 0 3 16 29 35
59 19 30 35 57 35 60 0 3 15 31 34 63 18 32 50 89 70 126 20 37 46 84 58 105
12 20 41 73 66 117 117 213 134 237 156 231 109 -31 184 -40 331 -40 191 -1
272 8 400 45 191 55 326 121 485 238 80 59 217 191 265 256 17 22 33 42 36 45
15 12 99 152 132 220 69 145 88 198 118 340 95 452 -18 906 -312 1250 -35 41
-71 81 -81 88 -10 7 -18 19 -18 27 0 7 47 96 103 197 57 100 119 210 137 243
18 33 83 148 143 255 61 107 118 209 127 225 9 17 71 127 137 245 162 290 350
625 381 680 35 60 53 93 150 267 45 81 87 155 92 163 5 8 41 71 79 140 38 69
108 194 155 279 48 84 103 183 123 220 20 36 39 70 43 74 3 4 58 -12 121 -37
163 -63 397 -133 507 -152 15 -3 43 -9 62 -14 19 -4 58 -12 85 -16 28 -4 57
-9 65 -10 8 -2 35 -6 60 -9 25 -3 56 -7 70 -10 147 -25 675 -26 805 -1 11 2
47 7 79 11 500 57 1084 284 1530 593 259 178 537 436 716 662 28 36 57 73 65
82 140 170 345 524 447 773 44 107 59 145 63 155 1 3 4 12 7 20 55 146 131
426 153 560 3 19 7 46 10 60 14 77 22 138 30 230 3 36 8 81 10 100 6 43 7 403
1 485 -5 57 -9 102 -21 220 -3 28 -7 57 -10 65 -2 8 -7 33 -10 55 -21 151
-112 506 -158 615 -6 14 -11 27 -11 30 -12 58 -166 386 -249 530 -189 329
-457 658 -721 885 -32 28 -63 55 -69 60 -178 154 -472 343 -722 464 -157 76
-497 205 -595 226 -8 2 -35 8 -60 15 -84 21 -255 58 -295 64 -22 3 -49 7 -60
10 -11 2 -49 7 -85 11 -36 4 -73 9 -82 10 -108 21 -615 21 -725 1 -10 -2 -44
-7 -76 -10 -49 -6 -119 -17 -262 -42 -16 -3 -57 -12 -90 -21 -33 -8 -67 -16
-75 -18 -99 -20 -354 -105 -500 -167 -85 -36 -258 -120 -350 -170 -412 -222
-833 -596 -1125 -998 -155 -212 -304 -481 -410 -738 -56 -136 -130 -365 -160
-492 -48 -203 -81 -402 -92 -557 -14 -185 -6 -674 11 -702 2 -3 7 -35 11 -71
4 -36 8 -67 10 -70 2 -3 6 -27 9 -54 4 -27 9 -52 11 -55 1 -3 6 -24 9 -46 17
-108 87 -357 138 -490 152 -401 344 -734 601 -1045 148 -178 412 -427 604
-569 l71 -53 -20 -37 c-11 -20 -100 -178 -198 -351 -97 -173 -194 -346 -215
-385 -21 -38 -49 -87 -62 -107 -13 -21 -23 -39 -23 -42 0 -2 -29 -54 -65 -116
-36 -62 -65 -114 -65 -115 0 -2 -18 -35 -40 -74 -22 -38 -49 -87 -61 -108 -12
-21 -33 -58 -47 -83 -14 -25 -44 -79 -67 -120 -39 -69 -294 -524 -353 -630
-14 -25 -62 -110 -107 -190 -45 -80 -97 -172 -115 -205 -18 -33 -53 -96 -78
-140 -25 -44 -55 -98 -67 -120 -82 -148 -100 -175 -114 -170 -7 3 -55 13 -105
22 -131 23 -362 22 -476 -2 -35 -7 -82 -16 -103 -18 -17 -2 -36 22 -80 104 -8
14 -76 135 -153 268 -140 243 -157 274 -209 366 -15 28 -132 231 -259 453
-127 222 -242 422 -255 445 -71 125 -262 455 -361 622 -27 45 -59 101 -73 125
-14 25 -62 108 -107 185 -45 77 -94 160 -108 185 -14 25 -42 74 -64 109 -21
34 -38 66 -38 69 0 3 -6 13 -14 21 -7 9 -27 41 -43 71 -17 30 -124 215 -238
410 -115 195 -338 577 -496 847 l-288 493 68 67 c166 168 289 359 358 558 62
180 78 283 78 490 0 151 -7 227 -27 300 -5 22 -12 51 -15 64 -8 47 -64 197
-103 277 -134 271 -377 518 -645 651 -308 155 -672 198 -991 118 -54 -14 -106
-27 -114 -30 -8 -2 -24 -7 -35 -10 -17 -5 -28 6 -63 67 -24 40 -47 80 -52 88
-21 35 -245 419 -268 460 -14 25 -44 77 -67 115 -23 39 -80 135 -126 215 -46
80 -89 154 -96 165 -7 11 -16 27 -20 35 -4 8 -27 49 -51 90 -25 41 -123 210
-220 375 -162 279 -228 391 -260 440 -6 11 -16 29 -21 40 -6 11 -106 182 -223
380 l-214 360 71 55 c348 271 642 605 869 986 36 62 66 115 66 118 0 4 10 23
23 44 42 68 149 315 203 468 89 257 138 468 179 774 25 187 25 603 0 798 -15
117 -35 240 -46 292 -6 25 -13 56 -15 70 -10 53 -56 220 -90 325 -212 650
-635 1253 -1185 1687 -79 63 -302 218 -313 218 -3 0 -25 13 -49 30 -70 47
-321 174 -452 228 -292 122 -651 217 -930 247 -33 4 -71 8 -83 10 -51 8 -429
24 -435 19z m2948 -11057 c26 -80 104 -247 147 -317 202 -327 579 -585 958
-654 112 -21 175 -27 290 -26 95 1 126 3 211 15 44 7 46 6 63 -27 9 -18 25
-46 35 -63 21 -33 178 -303 219 -375 14 -25 36 -62 49 -82 12 -21 23 -40 23
-44 0 -3 14 -26 30 -51 17 -24 30 -46 30 -49 0 -3 16 -30 35 -60 19 -30 35
-56 35 -58 0 -2 109 -190 241 -417 133 -228 249 -427 259 -444 19 -33 461
-794 518 -890 19 -33 48 -85 65 -115 16 -30 35 -62 42 -70 7 -8 15 -22 19 -30
3 -8 18 -36 34 -62 223 -383 402 -691 423 -727 14 -25 59 -102 99 -171 40 -69
81 -140 92 -158 44 -78 102 -179 205 -357 61 -104 124 -213 139 -240 16 -28
64 -112 107 -188 67 -115 77 -139 65 -150 -134 -139 -235 -294 -326 -503 -21
-49 -67 -222 -77 -294 -3 -19 -8 -45 -10 -56 -8 -35 -8 -263 0 -329 8 -71 53
-281 65 -304 5 -9 20 -47 35 -86 43 -112 163 -312 228 -380 6 -7 31 -33 55
-59 l43 -46 -47 -88 c-26 -48 -58 -104 -71 -124 -12 -21 -23 -39 -23 -42 0 -4
-92 -169 -298 -536 -35 -63 -80 -144 -99 -180 -20 -36 -39 -69 -43 -75 -5 -5
-22 -37 -39 -70 -18 -33 -40 -73 -50 -90 -10 -16 -55 -97 -101 -180 -45 -82
-111 -199 -145 -260 -34 -60 -76 -135 -92 -165 -17 -30 -45 -80 -62 -110 -18
-30 -39 -68 -47 -85 -8 -16 -25 -48 -37 -70 -13 -22 -38 -67 -56 -100 -19 -33
-51 -89 -71 -125 -43 -75 -418 -748 -463 -830 -35 -63 -144 -258 -157 -280 -8
-13 -69 -123 -156 -280 -16 -30 -35 -64 -42 -75 -50 -88 -122 -216 -122 -220
0 -2 -23 -43 -51 -92 -28 -48 -63 -110 -78 -138 -24 -43 -81 -146 -148 -265
-11 -19 -35 -62 -53 -95 -76 -138 -152 -270 -158 -277 -4 -3 -36 0 -72 8 -196
42 -427 36 -636 -17 -102 -25 -109 -27 -109 -29 0 -1 -7 -3 -15 -5 -29 -7
-141 -55 -208 -91 -210 -111 -395 -278 -530 -481 -23 -34 -42 -64 -42 -67 0
-3 -13 -27 -28 -53 -32 -55 -71 -149 -102 -243 l-21 -65 -2807 1 c-1544 1
-2810 2 -2814 3 -5 0 -8 8 -8 16 0 8 -13 54 -30 101 -135 390 -460 721 -855
869 -85 32 -241 72 -320 81 -121 14 -317 9 -435 -11 l-35 -6 -145 252 c-80
139 -159 277 -176 308 -17 31 -100 175 -184 321 -83 146 -162 283 -175 305
-12 22 -53 94 -92 160 -38 66 -72 127 -76 135 -4 8 -17 31 -28 50 -31 51 -481
837 -516 900 -8 14 -22 39 -32 55 -33 55 -733 1279 -764 1335 -16 30 -38 67
-49 82 -10 14 -18 28 -18 31 0 2 -29 54 -64 115 -36 61 -76 131 -89 154 -39
69 -68 121 -88 153 -10 17 -26 46 -37 65 -11 19 -63 112 -117 205 -54 94 -104
181 -111 194 -12 23 -9 29 39 85 97 112 139 175 204 301 68 134 124 297 139
405 2 19 7 46 10 60 12 58 12 310 -1 400 -46 315 -175 582 -400 824 -33 35
-35 40 -22 60 8 11 35 59 62 106 26 47 76 135 110 195 70 123 394 695 433 765
14 25 52 92 85 150 75 133 80 140 195 345 52 94 104 182 114 198 11 15 16 27
12 27 -4 0 0 8 8 18 8 9 32 49 53 87 21 39 41 75 45 80 4 6 21 35 37 65 17 30
46 82 65 115 37 64 131 230 246 435 14 25 111 196 215 380 105 184 201 355
215 380 14 25 33 59 42 75 35 61 228 402 252 445 14 25 52 92 85 150 33 58 71
125 85 150 14 25 34 61 45 80 11 19 82 145 158 280 76 135 143 251 150 258 10
11 22 11 71 -2 134 -35 389 -40 550 -12 451 78 840 370 1049 787 45 89 108
259 96 259 -3 0 0 4 8 9 8 5 1203 9 2812 9 l2798 0 26 -81z"/>
<path d="M20538 22876 c-1 -2 -62 -6 -134 -9 -72 -4 -137 -8 -145 -11 -8 -3
-34 -7 -59 -10 -160 -20 -364 -73 -545 -143 -208 -81 -482 -241 -642 -376 -98
-82 -137 -119 -212 -196 -294 -303 -498 -663 -606 -1066 -13 -49 -27 -106 -30
-125 -3 -19 -8 -42 -10 -50 -2 -8 -6 -33 -10 -55 -3 -22 -7 -47 -10 -55 -10
-35 -18 -187 -19 -340 -1 -212 9 -316 50 -520 59 -294 210 -637 393 -895 182
-255 462 -516 724 -673 204 -123 490 -244 655 -278 12 -2 59 -13 105 -24 45
-10 106 -22 136 -25 30 -4 63 -8 74 -10 108 -21 488 -21 597 0 12 2 48 7 79
11 31 3 59 8 62 10 3 2 21 6 40 9 61 10 222 54 309 83 662 226 1201 736 1467
1387 39 96 88 240 97 287 2 13 7 30 10 38 3 8 7 26 10 40 3 14 11 59 20 100
44 217 55 607 22 775 -2 11 -7 40 -10 65 -4 25 -8 52 -10 60 -1 8 -6 33 -11
55 -26 134 -87 327 -143 457 -196 449 -505 817 -907 1080 -364 239 -777 374
-1200 394 -66 3 -125 7 -132 9 -6 2 -13 2 -15 1z"/>
<path d="M27698 34296 c-1 -2 -52 -6 -113 -9 -249 -12 -499 -97 -723 -247 -90
-60 -254 -212 -324 -300 -37 -47 -148 -216 -148 -225 0 -3 -10 -26 -24 -53
-47 -93 -105 -281 -121 -389 -3 -23 -8 -57 -11 -75 -2 -18 -5 -93 -5 -166 1
-239 51 -448 158 -657 44 -84 102 -179 114 -183 5 -2 9 -10 9 -17 0 -7 3 -15
8 -17 4 -1 31 -32 61 -68 65 -78 67 -79 158 -157 135 -115 268 -194 434 -256
175 -66 322 -91 529 -90 567 2 1086 346 1313 869 33 75 58 143 56 154 0 3 5
19 11 35 12 32 15 44 29 115 25 123 33 341 17 450 -48 339 -173 602 -400 839
-86 89 -293 251 -322 251 -3 0 -18 8 -32 18 -54 38 -270 121 -352 136 -14 2
-36 7 -50 10 -54 13 -88 17 -165 22 -44 3 -85 7 -92 9 -6 2 -13 2 -15 1z"/>
<path d="M13238 34284 c-2 -1 -25 -5 -53 -8 -115 -13 -136 -18 -216 -42 -46
-13 -91 -26 -99 -28 -63 -16 -238 -106 -340 -174 -120 -80 -300 -263 -383
-388 -136 -204 -209 -406 -242 -664 -7 -58 -8 -249 -1 -281 3 -13 7 -46 10
-74 6 -52 7 -60 25 -138 14 -61 62 -198 91 -262 30 -64 102 -189 112 -193 5
-2 8 -8 8 -13 0 -6 4 -15 10 -22 5 -7 31 -39 57 -72 90 -116 246 -254 373
-333 151 -93 389 -179 545 -197 28 -3 61 -8 74 -11 30 -6 278 -7 288 -1 5 3
35 7 68 11 60 6 231 50 315 81 111 41 309 156 395 231 237 203 387 429 471
709 24 80 27 89 38 155 3 19 8 49 12 65 20 113 7 392 -26 525 -6 25 -13 55
-15 67 -11 47 -59 171 -97 248 -89 178 -235 361 -388 487 -202 165 -453 274
-725 313 -47 7 -302 15 -307 9z"/>
<path d="M6029 21886 c-2 -2 -29 -6 -59 -10 -92 -10 -122 -16 -215 -42 -447
-127 -804 -456 -968 -895 -20 -53 -38 -106 -40 -120 -3 -13 -10 -42 -15 -64
-21 -81 -36 -219 -35 -335 6 -589 365 -1116 909 -1333 103 -41 211 -73 279
-83 17 -2 55 -8 85 -13 68 -11 286 -12 360 -1 107 16 135 22 220 46 336 96
617 302 820 603 64 96 163 314 185 411 37 155 49 250 49 385 0 86 -11 233 -19
245 -2 3 -6 24 -10 47 -7 51 -45 178 -74 250 -128 323 -383 600 -698 757 -99
50 -231 98 -313 115 -30 6 -66 14 -80 16 -14 3 -38 8 -55 11 -38 7 -320 16
-326 10z"/>
<path d="M34679 21886 c-2 -2 -31 -7 -64 -10 -33 -4 -67 -9 -75 -11 -8 -2 -28
-7 -45 -9 -16 -3 -66 -16 -110 -30 -450 -136 -808 -483 -955 -926 -57 -171
-78 -307 -74 -487 1 -81 4 -157 7 -168 2 -11 10 -51 17 -90 30 -172 115 -375
226 -542 78 -118 261 -301 383 -381 158 -106 364 -194 511 -218 14 -3 31 -7
39 -10 54 -19 362 -26 471 -11 539 76 996 454 1170 967 22 63 42 129 45 145 7
34 21 122 30 180 7 45 7 205 0 280 -27 324 -173 643 -397 873 -95 98 -206 192
-227 192 -5 0 -11 4 -13 9 -4 13 -59 44 -173 100 -140 69 -244 102 -425 136
-41 7 -334 17 -341 11z"/>
<path d="M13135 9475 c-547 -88 -985 -458 -1161 -979 -19 -54 -39 -126 -45
-160 -6 -34 -13 -70 -15 -81 -7 -40 -14 -141 -15 -220 -4 -554 325 -1074 831
-1312 142 -67 281 -109 440 -131 63 -9 292 -8 370 1 311 37 653 209 860 434
89 96 104 116 157 194 166 246 246 503 247 799 1 147 -7 230 -30 330 -9 36
-17 70 -18 75 -11 52 -67 193 -107 272 -74 143 -149 245 -273 368 -207 207
-445 336 -731 397 -115 25 -394 32 -510 13z"/>
<path d="M27578 9485 c-1 -1 -34 -6 -73 -9 -309 -30 -642 -193 -874 -428 -192
-195 -335 -461 -385 -713 -25 -130 -28 -155 -31 -270 -2 -99 16 -312 29 -333
3 -5 8 -24 11 -43 22 -124 116 -333 221 -492 65 -97 221 -265 299 -323 22 -16
42 -31 45 -34 3 -3 37 -26 75 -50 410 -257 910 -297 1354 -108 53 23 112 52
131 65 19 13 38 23 42 23 10 0 176 117 212 149 198 178 335 377 415 604 35
100 57 182 66 247 3 25 9 54 12 64 9 32 11 276 2 346 -33 266 -127 502 -287
719 -105 143 -287 306 -437 391 -170 97 -353 159 -540 185 -54 7 -281 16 -287
10z"/>
</g>
</svg>
