<svg xmlns="http://www.w3.org/2000/svg" xml:space="preserve" width="50" height="50" viewBox="0 0 50 50">
  <g fill-rule="evenodd" clip-rule="evenodd">
    <path d="M27.019 0c1.153.418 2.297.864 3.46 1.249 5.333 1.765 6.355 5.229 5.137 10.211-.915 3.741-3.146 6.759-5.684 9.49-6.444 6.935-13.838 12.519-23.016 15.402-3.277 1.03-4.279.54-5.365-2.612C1.046 32.278.518 30.825 0 29.368v-3.524c.893.299 1.783.842 2.68.852 3.125.035 5.762-1.471 8.414-2.924 5.88-3.225 10.884-7.473 14.254-13.275 2.288-3.938 2.411-7.54-3.29-8.514-2.326-.396-5.154-.136-6.524 1.929-1.268 1.911-2.609 1.87-4.965 1.751.825-1.027 1.249-1.907 1.95-2.349 1.127-.711 2.406-1.229 3.679-1.656C18.081 1.026 20.016.544 21.928 0z"/>
    <path d="M39.241 4.965c1.155.953 2.429 1.794 3.442 2.878 3.196 3.419 5.655 7.227 5.362 12.183-.197 3.345-1.411 6.349-3.187 9.181-5.874 9.365-14.533 15.123-24.602 19.026-1.45.563-2.991.691-4.644.019-2.786-1.134-5.269-2.602-7.153-4.513 1.765-.398 3.627-.687 5.406-1.243 4.907-1.538 9.183-4.3 13.197-7.402 4.71-3.639 9.061-7.724 12.108-12.903 1.473-2.503 2.844-5.232 3.455-8.034.767-3.514-.591-6.67-3.384-9.192"/>
    <path d="M49.381 25.968c-.453 8.952-4.241 16.015-12.104 20.599-4.027 2.348-8.257 4.114-13.523 3.177 15.383-4.53 22.819-13.194 25.627-23.776M1.17 18.566c.725-4.003 2.471-7.25 5.552-9.816l-.869 1.732c1.722-.437 2.968-.709 4.188-1.072 2.333-.693 2.613-.388 2.814 1.985.247 2.929-1.203 4.566-3.612 5.772-2.433 1.217-4.954 1.772-8.073 1.399"/>
  </g>
</svg>
