<?xml version="1.0" encoding="utf-8"?>
<!-- Generator: Adobe Illustrator 16.0.0, SVG Export Plug-In . SVG Version: 6.00 Build 0)  -->
<!DOCTYPE svg PUBLIC "-//W3C//DTD SVG 1.1//EN" "http://www.w3.org/Graphics/SVG/1.1/DTD/svg11.dtd">
<svg version="1.1" xmlns="http://www.w3.org/2000/svg" xmlns:xlink="http://www.w3.org/1999/xlink" x="0px" y="0px"
	 width="451.233px" height="50px" viewBox="0 0 451.233 50" enable-background="new 0 0 451.233 50" xml:space="preserve">
<g id="Calque_1">
	<g>
		<path fill-rule="evenodd" clip-rule="evenodd" fill="#FFFFFF" d="M450.925,35.292c-3.771-6.504-7.544-13.009-11.305-19.521
			c-0.18-0.311-0.365-0.444-0.736-0.436c-1.215,0.026-2.432,0.042-3.646-0.006c-0.514-0.021-0.776,0.174-1.013,0.588
			c-3.718,6.531-7.445,13.056-11.169,19.583c-0.087,0.152-0.157,0.314-0.257,0.519c1.596,0,3.126-0.017,4.656,0.011
			c0.399,0.007,0.604-0.151,0.777-0.468c0.652-1.197,1.323-2.384,1.965-3.587c0.147-0.275,0.317-0.361,0.622-0.36
			c3.879,0.01,7.76,0.012,11.64-0.003c0.337-0.001,0.5,0.119,0.65,0.399c0.653,1.216,1.34,2.415,1.987,3.634
			c0.157,0.297,0.338,0.386,0.661,0.381c1.365-0.018,2.731,0.008,4.097-0.016c0.46-0.008,0.919-0.118,1.379-0.181
			c0-0.034,0-0.066,0-0.1C451.13,35.584,451.015,35.445,450.925,35.292z M432.756,27.306c1.293-2.49,2.553-4.917,3.859-7.432
			c1.348,2.504,2.658,4.938,4,7.432C437.977,27.306,435.41,27.306,432.756,27.306z"/>
		<path fill-rule="evenodd" clip-rule="evenodd" fill="#FFFFFF" d="M255.658,21.17c-4.564,0.006-9.128,0.007-13.692-0.001
			c-0.446,0-0.632,0.174-0.627,0.616c0.01,1.016,0.003,2.032,0.003,3.048c0,0.36,0,0.721,0,1.123c0.266,0,0.463,0,0.661,0
			c2.582,0,5.164,0.012,7.746-0.011c0.451-0.004,0.563,0.135,0.554,0.566c-0.027,1.25-0.03,2.499,0.001,3.748
			c0.011,0.45-0.133,0.554-0.565,0.553c-5.147-0.014-10.295-0.009-15.442-0.011c-0.176,0-0.353-0.019-0.521-0.028
			c0-4.98,0-9.902,0-14.829c5.512,0,10.986,0,16.522,0c0,0.902,0,1.777,0,2.681c0.141,0,0.222,0.013,0.299-0.002
			c1.7-0.317,3.399-0.643,5.101-0.955c0.377-0.068,0.488-0.309,0.47-0.635c-0.044-0.813-0.042-1.636-0.169-2.438
			c-0.331-2.08-1.302-3.071-3.382-3.451c-0.781-0.143-1.587-0.205-2.381-0.208c-5.48-0.017-10.961-0.013-16.441-0.003
			c-0.647,0.001-1.298,0.047-1.942,0.122c-2.163,0.252-3.373,1.288-3.861,3.317c-0.132,0.546-0.232,1.116-0.235,1.676
			c-0.026,4.864-0.028,9.728-0.027,14.591c0.001,0.497,0.062,0.997,0.128,1.491c0.291,2.164,1.241,3.247,3.294,3.65
			c0.795,0.156,1.62,0.226,2.431,0.229c5.514,0.02,11.027,0.018,16.541,0.001c0.762-0.002,1.53-0.085,2.285-0.198
			c1.86-0.277,3.04-1.337,3.472-3.178c0.125-0.533,0.231-1.083,0.238-1.626c0.036-3.131,0.033-6.262,0.062-9.394
			C256.182,21.199,255.986,21.169,255.658,21.17z"/>
		<path fill-rule="evenodd" clip-rule="evenodd" fill="#FFFFFF" d="M114.052,28.015c-0.015,1.16-0.007,2.32-0.007,3.504
			c-4.063,0-8.065,0-12.088,0c0-3.968,0-7.903,0-11.849c4.041,0,8.043,0,12.088,0c0,0.635,0,1.232,0,1.83c0,0.597,0,1.193,0,1.816
			c0.182,0,0.314,0.017,0.44-0.003c1.447-0.219,2.892-0.455,4.341-0.66c0.4-0.057,0.538-0.273,0.531-0.627
			c-0.019-1.032-0.001-2.067-0.083-3.095c-0.165-2.092-1.037-3.057-3.101-3.423c-0.733-0.129-1.491-0.155-2.237-0.158
			c-3.913-0.015-7.827-0.011-11.74-0.002c-0.631,0.001-1.265,0.039-1.893,0.104c-1.823,0.188-2.934,1.05-3.351,2.65
			c-0.154,0.59-0.242,1.214-0.246,1.823c-0.021,3.897-0.021,7.793-0.001,11.69c0.003,0.593,0.098,1.196,0.228,1.776
			c0.275,1.23,1.038,2.058,2.279,2.312c0.891,0.182,1.81,0.295,2.718,0.303c3.863,0.031,7.727,0.018,11.59,0.009
			c0.682-0.001,1.365-0.035,2.044-0.096c2.173-0.194,3.33-1.195,3.632-3.356c0.193-1.375,0.156-2.783,0.224-4.216
			c-1.771-0.373-3.458-0.729-5.219-1.1C114.146,27.519,114.056,27.766,114.052,28.015z"/>
		<path fill-rule="evenodd" clip-rule="evenodd" fill="#FFFFFF" d="M143.864,23.314c1.447-0.219,2.892-0.454,4.341-0.66
			c0.394-0.056,0.544-0.265,0.537-0.622c-0.02-1.031,0-2.067-0.084-3.094c-0.18-2.196-1.258-3.269-3.441-3.487
			c-0.628-0.063-1.262-0.101-1.894-0.102c-3.913-0.009-7.827-0.009-11.74,0c-0.631,0.001-1.265,0.038-1.894,0.103
			c-2.079,0.216-3.181,1.262-3.498,3.329c-0.083,0.54-0.121,1.093-0.122,1.64c-0.01,3.581-0.018,7.162,0.006,10.742
			c0.004,0.727,0.09,1.463,0.232,2.176c0.255,1.279,1.046,2.119,2.332,2.376c0.859,0.171,1.745,0.286,2.62,0.292
			c4.03,0.03,8.06,0.017,12.09,0.008c0.581-0.001,1.166-0.038,1.743-0.108c2.107-0.256,3.2-1.235,3.485-3.34
			c0.178-1.312,0.127-2.656,0.151-3.986c0.002-0.107-0.203-0.289-0.337-0.318c-1.573-0.345-3.152-0.667-4.808-1.012
			c-0.056,0.263-0.149,0.508-0.153,0.754c-0.018,0.982-0.007,1.965-0.007,2.947c0,0.19,0,0.38,0,0.567c-4.079,0-8.069,0-12.081,0
			c0-3.966,0-7.902,0-11.848c4.04,0,8.042,0,12.09,0c0,1.232,0,2.426,0,3.645C143.606,23.316,143.738,23.333,143.864,23.314z"/>
		<path fill-rule="evenodd" clip-rule="evenodd" fill="#FFFFFF" d="M400.364,23.33c1.547-0.231,3.095-0.45,4.634-0.721
			c0.166-0.029,0.39-0.365,0.393-0.563c0.018-1.031,0.025-2.068-0.061-3.094c-0.188-2.213-1.254-3.279-3.43-3.501
			c-0.579-0.059-1.162-0.101-1.743-0.102c-4.03-0.009-8.061-0.009-12.091,0c-0.581,0.001-1.164,0.042-1.742,0.106
			c-2.059,0.229-3.131,1.257-3.464,3.311c-0.066,0.409-0.11,0.827-0.111,1.24c-0.008,3.864-0.008,7.727,0.002,11.591
			c0.002,0.447,0.056,0.897,0.128,1.339c0.275,1.682,1.129,2.577,2.803,2.874c0.717,0.127,1.454,0.197,2.182,0.2
			c4.063,0.018,8.127,0.013,12.19,0.004c0.564-0.001,1.132-0.039,1.693-0.105c2.122-0.252,3.222-1.244,3.506-3.378
			c0.173-1.296,0.12-2.623,0.141-3.936c0.002-0.112-0.193-0.301-0.324-0.33c-1.574-0.346-3.153-0.668-4.814-1.013
			c-0.058,0.256-0.152,0.499-0.159,0.742c-0.02,0.799-0.007,1.599-0.007,2.398c0,0.375,0,0.75,0,1.112c-4.08,0-8.082,0-12.085,0
			c0-3.968,0-7.891,0-11.838c4.034,0,8.036,0,12.084,0c0,1.226,0,2.419,0,3.665C400.234,23.331,400.301,23.339,400.364,23.33z"/>
		<path fill-rule="evenodd" clip-rule="evenodd" fill="#FFFFFF" d="M270.84,31.638c0-1.467,0-2.872,0-4.308c0.222,0,0.403,0,0.584,0
			c2.631,0,5.262-0.016,7.893,0.011c0.649,0.006,0.799-0.206,0.776-0.81c-0.026-0.715-0.006-1.432-0.006-2.147
			c0-0.36,0-0.721,0-1.132c-3.127,0-6.183,0-9.263,0c0-1.26,0-2.467,0-3.743c0.269,0,0.484,0,0.699,0c4.846,0,9.692,0,14.539-0.001
			c0.573,0,0.663-0.087,0.665-0.665c0.004-1.033,0.003-2.065-0.001-3.098c0-0.125-0.029-0.251-0.047-0.401c-0.234,0-0.432,0-0.629,0
			c-6.579,0-13.157,0.006-19.735-0.008c-0.726-0.001-0.833,0.095-0.833,0.852c0.005,6.395,0.003,12.79,0.003,19.185
			c0,0.196,0,0.392,0,0.646c0.25,0,0.445,0,0.64,0c6.612,0,13.223,0,19.835,0c0.183,0,0.392,0.056,0.543-0.015
			c0.187-0.086,0.46-0.273,0.465-0.423c0.037-1.293,0.021-2.588,0.021-3.944C281.569,31.638,276.202,31.638,270.84,31.638z"/>
		<path fill-rule="evenodd" clip-rule="evenodd" fill="#FFFFFF" d="M177.353,31.648c-5.376,0-10.731,0-16.121,0
			c0-1.455,0-2.86,0-4.319c0.229,0,0.424,0,0.62,0c2.682,0,5.363-0.004,8.045,0.005c0.304,0.001,0.573-0.062,0.58-0.383
			c0.024-1.211,0.01-2.422,0.01-3.689c-3.11,0-6.166,0-9.246,0c0-1.275,0-2.495,0-3.754c0.24,0,0.438,0,0.636,0
			c4.564,0,9.128,0,13.692,0c0.367,0,0.742,0.047,1.096-0.021c0.186-0.036,0.47-0.27,0.475-0.422
			c0.039-1.226,0.021-2.453,0.021-3.722c-0.221,0-0.384,0-0.548,0c-6.662,0-13.325,0-19.987,0c-0.673,0-0.726,0.053-0.726,0.743
			c0,6.463,0,12.926,0,19.388c0,0.162,0,0.325,0,0.505c0.101,0.02,0.117,0.026,0.133,0.026c6.962,0.004,13.924,0.007,20.887,0.014
			c0.424,0,0.478-0.275,0.479-0.592c0.003-1.149,0.001-2.298-0.001-3.448C177.395,31.886,177.371,31.791,177.353,31.648z"/>
		<path fill-rule="evenodd" clip-rule="evenodd" fill="#FFFFFF" d="M79.694,11.272c-0.152-0.276-0.333-0.353-0.632-0.35
			c-1.499,0.013-2.998,0.027-4.496-0.005c-0.483-0.011-0.739,0.153-0.968,0.574c-4.342,8.008-8.7,16.008-13.053,24.011
			c-0.083,0.153-0.145,0.317-0.235,0.518c1.832,0,3.596-0.019,5.36,0.013c0.444,0.008,0.658-0.174,0.836-0.527
			c0.742-1.468,1.503-2.927,2.237-4.4c0.161-0.324,0.35-0.454,0.723-0.452c4.546,0.013,9.092,0.013,13.638,0
			c0.363-0.001,0.564,0.103,0.734,0.434c0.79,1.539,1.614,3.06,2.411,4.595c0.133,0.256,0.288,0.346,0.576,0.344
			c1.915-0.013,3.83-0.002,5.745-0.015c0.195-0.001,0.39-0.106,0.626-0.174c-0.085-0.187-0.109-0.249-0.141-0.307
			C88.6,27.446,84.142,19.362,79.694,11.272z M71.645,25.621c1.589-3.026,3.146-5.993,4.753-9.055
			c1.554,3.048,3.066,6.013,4.617,9.055C77.855,25.621,74.813,25.621,71.645,25.621z"/>
		<path fill-rule="evenodd" clip-rule="evenodd" fill="#FFFFFF" d="M371.059,15.344c-0.715,0-0.748,0.033-0.748,0.769
			c0,3.831,0,7.662,0,11.492c0,0.19,0,0.38,0,0.669c-0.236-0.178-0.381-0.28-0.519-0.392c-4.379-3.563-8.757-7.126-13.137-10.689
			c-0.748-0.609-1.417-1.45-2.276-1.753c-0.876-0.308-1.939-0.089-2.921-0.095c-0.714-0.005-0.751,0.036-0.751,0.767
			c0,6.446,0,12.892,0,19.338c0,0.177,0,0.354,0,0.569c1.412,0,2.758,0,4.105,0c0.707,0,0.745-0.04,0.745-0.774
			c0-3.681,0-7.361,0-11.042c0-0.399,0-0.797,0-1.325c0.257,0.204,0.425,0.331,0.587,0.465c4.36,3.612,8.719,7.226,13.081,10.837
			c0.742,0.615,1.41,1.453,2.267,1.759c0.858,0.307,1.908,0.077,2.874,0.08c0.738,0.002,0.775-0.037,0.775-0.791
			c0-6.429,0-12.858,0-19.288c0-0.179,0-0.358,0-0.596c-0.229,0-0.406,0-0.584,0C373.391,15.344,372.224,15.344,371.059,15.344z"/>
		<path fill-rule="evenodd" clip-rule="evenodd" fill="#FFFFFF" d="M334.398,15.356c-1.248-0.022-2.499,0.018-3.746-0.026
			c-0.526-0.019-0.804,0.169-1.054,0.61c-3.697,6.504-7.409,13.001-11.116,19.499c-0.096,0.168-0.181,0.342-0.306,0.581
			c0.231,0,0.391,0,0.551,0c1.349,0,2.698-0.023,4.046,0.013c0.459,0.013,0.691-0.174,0.889-0.542c0.631-1.17,1.287-2.328,1.917-3.5
			c0.143-0.266,0.301-0.378,0.614-0.377c3.897,0.011,7.793,0.011,11.69,0.001c0.287-0.001,0.448,0.085,0.584,0.34
			c0.663,1.231,1.354,2.445,2.012,3.678c0.152,0.286,0.316,0.399,0.65,0.396c1.599-0.02,3.197-0.002,4.796-0.018
			c0.216-0.002,0.431-0.124,0.685-0.202c-3.942-6.802-7.819-13.495-11.711-20.18C334.816,15.485,334.571,15.36,334.398,15.356z
			 M328.148,27.306c1.278-2.462,2.54-4.894,3.857-7.434c1.361,2.53,2.665,4.954,3.999,7.434
			C333.371,27.306,330.806,27.306,328.148,27.306z"/>
		<path fill-rule="evenodd" clip-rule="evenodd" fill="#FFFFFF" d="M312.144,28.319c2.056-0.203,3.322-1.348,3.452-3.409
			c0.134-2.121,0.096-4.262-0.013-6.387c-0.085-1.66-1.047-2.637-2.684-2.968c-0.695-0.142-1.419-0.2-2.13-0.201
			c-5.597-0.016-11.194-0.002-16.791-0.019c-0.66-0.001-0.768,0.197-0.767,0.77c0.011,6.446,0.007,12.893,0.007,19.34
			c0,0.177,0,0.354,0,0.575c1.537,0,3.016,0,4.495,0c0.625,0,0.689-0.063,0.69-0.679c0.001-2.115,0-4.231,0-6.347
			c0-0.177,0-0.354,0-0.571c1.229,0,2.393-0.02,3.555,0.014c0.266,0.008,0.585,0.134,0.779,0.314
			c2.477,2.302,4.939,4.62,7.394,6.946c0.249,0.236,0.495,0.331,0.836,0.329c2.099-0.014,4.198-0.001,6.297-0.015
			c0.225-0.001,0.449-0.117,0.771-0.207c-2.999-2.484-5.891-4.88-8.85-7.332C310.252,28.42,311.202,28.412,312.144,28.319z
			 M298.424,19.439c0.192-0.009,0.368-0.024,0.544-0.024c3.229-0.001,6.458-0.005,9.688,0.004c0.396,0.001,0.8,0.029,1.188,0.109
			c0.567,0.117,0.84,0.426,0.857,1.008c0.029,0.964,0.016,1.931,0.005,2.896c-0.004,0.436-0.231,0.721-0.67,0.805
			c-0.245,0.047-0.493,0.102-0.74,0.103c-3.528,0.008-7.057,0.008-10.586,0.009c-0.08,0-0.161-0.015-0.286-0.026
			C298.424,22.676,298.424,21.083,298.424,19.439z"/>
		<path fill-rule="evenodd" clip-rule="evenodd" fill="#FFFFFF" d="M204.011,31.646c-5.014,0-10.003,0-15.083,0
			c0-5.473,0-10.874,0-16.301c-1.552,0-3.05,0-4.547,0c-0.687,0-0.729,0.042-0.729,0.74c0,6.46,0,12.92,0.001,19.381
			c0,0.176,0.016,0.351,0.023,0.508c0.087,0.024,0.119,0.04,0.15,0.04c6.577,0.003,13.154,0.004,19.73,0.009
			c0.401,0,0.507-0.226,0.506-0.568c-0.001-1.182,0-2.364-0.004-3.547C204.059,31.83,204.031,31.753,204.011,31.646z"/>
		<path fill-rule="evenodd" clip-rule="evenodd" fill="#FFFFFF" d="M413.29,15.345c-0.676,0-0.724,0.048-0.724,0.745
			c0,6.462,0,12.924,0,19.386c0,0.174,0,0.349,0,0.543c1.546,0,3.012,0,4.477,0c0.743,0,0.777-0.034,0.777-0.791
			c0-6.428,0-12.857,0-19.286c0-0.179,0-0.358,0-0.598C416.253,15.344,414.771,15.344,413.29,15.345z"/>
	</g>
</g>
<g id="Calque_2">
	<path fill-rule="evenodd" clip-rule="evenodd" fill="#FFFFFF" d="M27.019,0c1.153,0.418,2.297,0.864,3.46,1.249
		c5.333,1.765,6.355,5.229,5.137,10.211c-0.915,3.741-3.146,6.759-5.684,9.49c-6.444,6.935-13.838,12.519-23.016,15.402
		c-3.277,1.03-4.279,0.54-5.365-2.612C1.046,32.278,0.518,30.825,0,29.368c0-1.174,0-2.349,0-3.524
		c0.893,0.299,1.783,0.842,2.68,0.852c3.125,0.035,5.762-1.471,8.414-2.924c5.88-3.225,10.884-7.473,14.254-13.275
		c2.288-3.938,2.411-7.54-3.29-8.514c-2.326-0.396-5.154-0.136-6.524,1.929c-1.268,1.911-2.609,1.87-4.965,1.751
		c0.825-1.027,1.249-1.907,1.95-2.349c1.127-0.711,2.406-1.229,3.679-1.656C18.081,1.026,20.016,0.544,21.928,0
		C23.625,0,25.322,0,27.019,0z"/>
	<path fill-rule="evenodd" clip-rule="evenodd" fill="#FFFFFF" d="M39.241,4.965c1.155,0.953,2.429,1.794,3.442,2.878
		c3.196,3.419,5.655,7.227,5.362,12.183c-0.197,3.345-1.411,6.349-3.187,9.181c-5.874,9.365-14.533,15.123-24.602,19.026
		c-1.45,0.563-2.991,0.691-4.644,0.019c-2.786-1.134-5.269-2.602-7.153-4.513c1.765-0.398,3.627-0.687,5.406-1.243
		c4.907-1.538,9.183-4.3,13.197-7.402c4.71-3.639,9.061-7.724,12.108-12.903c1.473-2.503,2.844-5.232,3.455-8.034
		C43.392,10.643,42.034,7.487,39.241,4.965z"/>
	<path fill-rule="evenodd" clip-rule="evenodd" fill="#FFFFFF" d="M49.381,25.968c-0.453,8.952-4.241,16.015-12.104,20.599
		c-4.027,2.348-8.257,4.114-13.523,3.177C39.137,45.214,46.573,36.55,49.381,25.968z"/>
	<path fill-rule="evenodd" clip-rule="evenodd" fill="#FFFFFF" d="M1.17,18.566c0.725-4.003,2.471-7.25,5.552-9.816
		c-0.192,0.383-0.384,0.766-0.869,1.732c1.722-0.437,2.968-0.709,4.188-1.072c2.333-0.693,2.613-0.388,2.814,1.985
		c0.247,2.929-1.203,4.566-3.612,5.772C6.81,18.384,4.289,18.939,1.17,18.566z"/>
</g>
</svg>
