<svg xmlns="http://www.w3.org/2000/svg" viewBox="55 15 120 50">
  <path d="m95.1 44.02 2.01.12c3.31 0 5.85-.66 7.63-1.91.68-.49 1.23-1.09 1.66-1.81a7.8 7.8 0 0 1-1.4-2.08h-.03c-.45-.96-.68-2.11-.68-3.43s.23-2.54.71-3.6c.13-.33.26-.59.45-.89-.23-.2-.42-.36-.68-.53-1.75-1.25-4.29-1.88-7.57-1.88-.94 0-1.98.03-3.22.13-1.2.1-2.34.26-3.44.49v4.49c3.28-.4 5.33-.49 5.91-.49.32-.03.68-.03 1.04-.03.75 0 1.4.03 1.98.16.62.07 1.1.26 1.53.53.42.26.75.63.94 1.06.23.43.36.96.36 1.62 0 1.39-.45 2.31-1.3 2.84-.88.49-2.18.76-3.9.76l-2.01-.08v-3.22c-1.01.07-3.54.43-4.58.69v14.65c1.75-.13 3.18-.36 4.58-.59v-6.98Zm52.73-11.23h11.53v-4.52h-15.82c.68.4 1.27.82 1.85 1.35.97.86 1.79 1.91 2.44 3.17m-2.41 17.82h-.03c-.58.56-1.27 1.06-2.01 1.48h16.7V47.6h-12.35c-.62 1.15-1.4 2.14-2.31 3Zm-71.86 1.48c.06-.13 4.19-6.2 4.19-6.2h5.88v6.2c1.49 0 3.35-.13 4.97-.26V28.28h-4.97S68.2 51.04 68.04 51.27c1.1.46 5.52.82 5.52.82m10.07-14.91v5.08h-3.41zm44.61-8.91h-4.97v5.71c2.14-.56 3.8-.96 4.97-1.15v-4.55Zm-4.97 23.82h4.97V34.08c-1.75.3-3.41.66-4.97 1.15z" />fil
  <path d="M119.82 40.55a7.8 7.8 0 0 0-2.14-1.55c-.84-.46-1.82-.89-2.99-1.35-.52-.23-1.04-.43-1.49-.63-.49-.16-.88-.4-1.2-.63-.36-.26-.65-.49-.84-.82-.19-.3-.29-.66-.29-1.09 0-.73.26-1.29.78-1.65.52-.33 1.4-.53 2.6-.53 1.04 0 1.95.13 2.7.4.78.26 1.46.56 2.08.92l1.43-4.26c-.71-.4-1.59-.76-2.7-1.12-1.07-.33-2.34-.49-3.83-.49-1.27 0-2.4.16-3.38.49-1.01.33-1.85.79-2.57 1.42-.68.63-1.27 1.39-1.62 2.28-.39.86-.58 1.85-.58 2.97s.19 2.01.55 2.77.84 1.42 1.4 1.98c.58.53 1.23.96 1.95 1.32.75.36 1.46.66 2.18.96 1.66.59 2.83 1.15 3.51 1.65.68.53 1.01 1.19 1.01 1.95 0 .4-.03.73-.16.99-.1.33-.29.56-.55.79-.29.2-.65.4-1.1.53-.45.1-1.04.16-1.75.16-1.4 0-2.57-.13-3.54-.46-.97-.3-1.79-.66-2.44-1.06l-1.4 4.29c.29.16.65.36 1.07.56.45.23.97.43 1.59.59.58.2 1.27.33 2.08.46.78.13 1.66.2 2.63.2 2.92 0 5.1-.59 6.56-1.85 1.43-1.22 2.14-2.94 2.14-5.15 0-1.19-.13-2.14-.39-2.94-.29-.82-.71-1.52-1.27-2.11Zm27.03 5.04c.62-1.55.91-3.36.91-5.41 0-2.18-.29-3.99-.91-5.54-.58-1.52-1.46-2.8-2.53-3.79-1.1-.99-2.44-1.72-3.96-2.14-1.56-.46-3.28-.69-5.17-.69-.91 0-1.95.03-3.22.13-.52.03-1.07.07-1.59.13v4.62q2.535-.3 5.07-.3c2.47 0 4.29.66 5.46 1.91 1.14 1.29 1.72 3.17 1.72 5.67 0 2.38-.62 4.22-1.79 5.58-1.23 1.39-3.09 2.05-5.56 2.05-1.46 0-3.09-.1-4.91-.33v4.65c.49.07 1.01.13 1.53.16 1.17.07 2.24.1 3.12.1 1.95 0 3.74-.23 5.3-.73 1.59-.53 2.92-1.29 4-2.28 1.07-1.02 1.95-2.28 2.53-3.79m11.4-3.73v-4.39h-9.03c.1.82.16 1.75.16 2.71 0 .56-.03 1.12-.1 1.68zm-54.15 9.47.03-.1c-16.21 3.13-28.88 3.53-36.26 2.41-6.24-.92-5.95-3.33.91-7.13.68-.4 1.01-.59 1.95-1.02.1-.1.88-1.22.91-1.29-2.5 1.06-5.1 2.11-7.05 3.13-3.7 1.95-6.11 3.63-7.11 5.01-.29.36-.45.73-.55 1.06-.36 1.32.88 2.34 3.67 3.03 8.32 2.05 23.23.89 45.45-3.63-.26-.1-1.17-.56-1.88-.92-.16-.1-.13-.33-.06-.56Zm71.41-26.26c-.23-.23-.58-.46-1.01-.66-1.62-.79-4.58-1.25-8.87-1.35-5.44-.15-12.01.67-19.75 1.89-.86.1-1.73.2-2.63.32.48-.05.96-.09 1.45-.14-.48.08-.96.16-1.45.23.94-.12 1.86-.24 2.75-.34 3.72-.28 7.55-.4 11.48-.32 5.69.13 8.64.76 8.84 2.31.06 2.58-5.57 6.35-11.63 8.96-.1.04-.19.08-.29.12-.03 0-.1.03-.16.07h4.91c.26 0 .49.1.68.3.19.16.29.4.29.69v.23c6.76-2.71 10.69-5.38 13.77-8.02 2.08-1.81 2.63-3.23 1.62-4.29" />
</svg>
