<svg xmlns="http://www.w3.org/2000/svg" width="201" height="61" fill="none" viewBox="0 0 201 61">
  <path fill="#3c3c3b" d="M74.208 28.8c0 4.846 3.077 7.85 7.197 7.85 1.278 0 3.077.05 7.197-.58v4.652c-1.657.533-4.782 1.114-8.002 1.114-5.919 0-11.98-4.7-11.98-12.891 0-8.288 6.061-12.989 11.98-12.989 3.22 0 6.345.582 8.002 1.115v4.652c-4.12-.63-5.919-.581-7.197-.581-4.072 0-7.197 3.005-7.197 7.851zm18.797 2.035v-14.54h5.54v13.861c0 6.543 3.456 6.35 4.592 6.35 1.279 0 4.546.242 4.546-6.35v-13.86h5.587v14.539c0 10.42-7.15 10.953-10.133 10.953s-10.132-.533-10.132-10.953m40.483-2.52c2.556.678 3.93 2.907 3.93 5.622 0 5.185-3.362 7.415-8.286 7.415h-10.228V16.295h10.606c2.226 0 6.771 1.357 6.771 7.222.048 1.405-.426 3.586-2.793 4.798m-5.067-1.697c1.468 0 2.226-1.211 2.226-2.714 0-1.55-1.137-2.665-2.226-2.665h-3.835v5.38h3.835zm-3.835 4.46v5.379h4.64c1.421 0 2.51-1.163 2.51-2.52 0-2.133-1.515-2.86-2.557-2.86zm23.012 3.537c0 .97.379 1.842 1.799 1.842h9.47v4.895h-10.701c-4.214-.146-6.108-1.406-6.155-5.574V16.295h16.856v4.895h-11.269v4.895h10.274v4.798h-10.274z"/>
  <path fill="#86be47" d="M181.357 31.126v4.555h-3.362v5.72h-5.35v-5.72h-10.89v-3.538l11.364-15.848h4.876v14.83h3.362zm-14.346 0h5.587V23.42zm33.427 3.684c-.142 4.216-3.219 6.978-8.806 6.978-2.226 0-6.061-.824-7.103-1.308v-4.46c1.989.728 4.025 1.26 6.061 1.26 3.409 0 4.924-.823 4.924-3.343 0 0-.237-2.375-2.793-2.908h-5.161v-4.362h4.971c2.699-.679 2.699-2.714 2.699-2.714 0-2.423-1.42-3.296-4.782-3.296-1.326 0-3.078.194-5.303 1.115v-4.459c1.089-.485 4.214-1.308 6.487-1.308 5.539 0 8.664 2.762 8.806 6.979 0 .193.048 4.458-3.503 5.96 3.456 1.358 3.503 5.671 3.503 5.865z"/>
  <path fill="#00808a" d="M8.914 45.52.438 30.496 8.914 15.52h16.903l8.476 14.976-8.476 15.024z"/>
  <path fill="#00ada0" d="M34.293 60.496 25.817 45.52l8.476-15.024h16.903l8.476 15.024-8.476 14.976z"/>
  <path fill="#86be47" d="M34.293 30.496 25.817 15.52 34.293.496h16.903l8.476 15.024-8.476 14.976z"/>
  <path fill="#fff" d="m25.817 45.52-8.475-15.024 8.475-14.976h16.904l8.475 14.976-8.475 15.024z"/>
  <path fill="#00808a" d="M25.817 45.471v.049h16.904l8.475-15.024H34.293z"/>
</svg>
