<svg xmlns="http://www.w3.org/2000/svg" fill="none" viewBox="0 0 37 40">
  <path fill="currentColor" fill-rule="evenodd" d="M26.632 30.843c-1.915.28-3.57.754-4.843 2.114a3.07 3.07 0 0 0-.783 1.454c-.074.337-.026.65.224.883.27.25.599.162.902.046.172-.066.338-.157.49-.262 1.6-1.099 2.767-2.6 4.01-4.235m-13.56.134c-.298.374-.503.612-.686.866-.956 1.323-1.666 2.734-1.528 4.433.064.782.612 1.68 1.065 1.63.818-.089.896-.817 1.03-1.426.387-1.765.325-3.546.118-5.503m4.863-12.744c.114-.165.158-.203.172-.25 1.221-4.139 2.033-8.334 1.668-12.676-.08-.947-.197-1.92-.797-2.728-.456-.613-.9-.594-1.312.045-.338.527-.474 1.123-.57 1.73-.731 4.66-.218 9.242.839 13.879m-5.839 6.829c-.49.686-.863 1.302-1.326 1.842-2.568 2.996-6.743 2.721-8.888-.594C.49 24.158.008 21.723 0 19.218c-.01-3.166.838-6.122 2.736-8.695C4.429 8.228 6.625 6.73 9.59 6.704c2.755-.024 4.468 2.267 3.57 4.887-.922 2.69-2.917 4.25-5.68 4.831-.529.112-1.03-.046-1.345-.507-.333-.49-.337-1.057-.191-1.615.076-.293.28-.197.51-.15 1.92.399 4.37-1.596 4.394-3.558.01-.955-.599-1.623-1.552-1.672-1.545-.08-2.729.674-3.705 1.752-3.108 3.433-3.869 9.642-1.726 13.742 1.464 2.801 4.124 3.005 5.925.401 1.096-1.585 1.542-3.375 1.241-5.312-.17-1.099-.092-1.244.765-1.34 1.058-.12 1.816.36 1.854 1.225.09 1.999.233 3.99.568 5.965.047.275.102.547.174.932 1.018-1.53 1.728-3.069 2.383-4.638.117-.281.03-.509-.056-.758-1.823-5.245-2.417-10.635-1.848-16.15.115-1.11.384-2.203.923-3.206C16.336.525 17.176.004 18.317 0c1.132-.004 2.009.463 2.548 1.481 1.103 2.085 1.221 4.358 1.084 6.624a46.4 46.4 0 0 1-2.635 12.876c-.225.632.098 1.43.755 1.817.633.374 1.063-.058 1.46-.45.547-.539.791-1.253 1.023-1.964.387-1.188.626-2.422 1.11-3.58.299-.715.638-1.403 1.135-2.007 1.115-1.354 2.522-1.845 4.21-1.373 1.64.459 2.543 1.65 2.815 3.258.488 2.886-.593 5.218-2.755 7.094-.29.25-.463.341-.118.746.894 1.05.917 2.363.806 3.645-.065.755.197.764.764.577q1.061-.35 2.08-.807c.643-.288.893-.092.87.6-.018.502-.24.847-.694 1.075-.96.483-1.962.85-3.029.945-.555.05-.833.299-1.097.747-1.102 1.868-2.344 3.634-4.058 5.007-.711.57-1.476 1.04-2.408 1.179-1.97.295-3.573-1.319-3.259-3.296.349-2.195 2.27-4.016 4.895-4.566 1.014-.213 2.05-.34 3.081-.455.41-.045.62-.19.705-.589.142-.662.21-1.315-.05-1.964-.285-.71-.826-1.065-1.567-.951-.493.076-.87.058-1.004-.47-.131-.518.144-.853.606-1.078 1.694-.824 2.784-2.193 3.47-3.912.393-.987.492-2.023.37-3.068-.09-.786-.452-1.418-1.283-1.656-.804-.231-1.332.193-1.766.78-.68.915-.993 1.99-1.298 3.068-.383 1.356-.704 2.736-1.517 3.928-.97 1.42-2.555 2.113-3.907 1.71-.603-.18-1.057-.591-1.555-.997-.883 1.801-1.874 3.503-3.106 5.053-.28.353-.142.714-.078 1.067.381 2.084.602 4.171.255 6.284-.114.687-.293 1.354-.635 1.965-1.186 2.125-3.858 2.187-5.121.102-.718-1.186-.768-2.463-.39-3.781.617-2.144 1.848-3.945 3.187-5.677.344-.444.458-.852.34-1.39-.175-.806-.298-1.624-.46-2.535m23.533 3.574c-.713-.028-1.173-.526-1.156-1.25.017-.734.486-1.183 1.224-1.174.713.008 1.121.467 1.108 1.242-.013.755-.465 1.21-1.176 1.182" clip-rule="evenodd"/>
</svg>
