<?xml version="1.0" encoding="UTF-8"?> <svg xmlns="http://www.w3.org/2000/svg" width="170.762" height="36.892" viewBox="0 0 170.762 36.892"><g id="logo_menu" data-name="logo menu" transform="translate(19003.499 277)"><path id="Tracé_19833" data-name="Tracé 19833" d="M586.885,65.44a2.763,2.763,0,0,0-1.919-.67,4.6,4.6,0,0,0-2.832,1.005,7.065,7.065,0,0,0-2.162,3.091l-.011.027a14.1,14.1,0,0,0-2.425-.195,12.307,12.307,0,0,0-4.56.761,6.6,6.6,0,0,0-2.931,2.124,5.151,5.151,0,0,0-1.02,3.175,4.566,4.566,0,0,0,.906,2.771,6.01,6.01,0,0,0,2.665,1.949,8.708,8.708,0,0,0,1.4.429,6.988,6.988,0,0,0-1.456.355,3.479,3.479,0,0,0-1.675,1.157,2.665,2.665,0,0,0-.495,1.561,2.22,2.22,0,0,0,.472,1.439,3.139,3.139,0,0,0,1.4.865,6.325,6.325,0,0,0-2.576.9,2.219,2.219,0,0,0-.366,3.5,4.885,4.885,0,0,0,2.414,1.1,22.854,22.854,0,0,0,4.781.388q4.994,0,7.6-1.507t2.6-3.837a3.46,3.46,0,0,0-.693-2.216,4.6,4.6,0,0,0-2.208-1.386,19.192,19.192,0,0,0-4.028-.769q-2.071-.213-2.977-.366a4.011,4.011,0,0,1-1.127-.289q-.221-.137-.221-.274a.354.354,0,0,1,.122-.266.754.754,0,0,1,.159-.11c.37.027.752.041,1.151.041a12.408,12.408,0,0,0,4.568-.754,6.527,6.527,0,0,0,2.924-2.124,5.185,5.185,0,0,0,1.02-3.183,4.568,4.568,0,0,0-.906-2.771,6.02,6.02,0,0,0-2.65-1.949c-.181-.074-.37-.141-.564-.2a3.608,3.608,0,0,1,.358-.589,1.126,1.126,0,0,1,.929-.442,1.3,1.3,0,0,1,.868.259,2.9,2.9,0,0,1,.541.617,2.471,2.471,0,0,0,.579.617,1.633,1.633,0,0,0,1,.259,1.871,1.871,0,0,0,1.523-.708,2.832,2.832,0,0,0,.579-1.85,2.466,2.466,0,0,0-.746-1.934M576.135,86.058q1.888.228,2.962.442a4.834,4.834,0,0,1,1.523.495.856.856,0,0,1,.449.754,1.148,1.148,0,0,1-.3.8,1.943,1.943,0,0,1-1.043.487,10.709,10.709,0,0,1-2.116.16,5.626,5.626,0,0,1-3.3-.708,2.307,2.307,0,0,1-.914-1.926,2.227,2.227,0,0,1,.076-.586,1.218,1.218,0,0,1,.131-.313q1.047.222,2.534.4m2.733-8.885q-.16,1.028-.906,1.18a1.007,1.007,0,0,1-.891-.267,3.032,3.032,0,0,1-.723-1.211,14.888,14.888,0,0,1-.594-2.193,13.641,13.641,0,0,1-.274-2.261,3.208,3.208,0,0,1,.221-1.4.937.937,0,0,1,.723-.571q.731-.152,1.271.739a9.47,9.47,0,0,1,.937,2.916,9.715,9.715,0,0,1,.236,3.068" transform="translate(-19508.277 -334.501)" fill="#30604a"></path><path id="Tracé_19834" data-name="Tracé 19834" d="M753.1,112.284l-.35-.152a.6.6,0,0,1-.32-.358,2.737,2.737,0,0,1-.091-.845V100.3a1.38,1.38,0,0,0-.343-.959,1.293,1.293,0,0,0-1.013-.381,3.242,3.242,0,0,0-.921.137q-.465.137-1.226.426l-3.457,1.325a1.864,1.864,0,0,0-.723.411.814.814,0,0,0-.19.563.827.827,0,0,0,.137.495.885.885,0,0,0,.457.3l.35.107a.669.669,0,0,1,.373.274,1.324,1.324,0,0,1,.129.685v6.483a2.992,2.992,0,0,1-.632.323,3.027,3.027,0,0,1-1.043.2,1.622,1.622,0,0,1-1.256-.487,2.066,2.066,0,0,1-.449-1.447V100.3a1.347,1.347,0,0,0-.358-.959,1.407,1.407,0,0,0-1.074-.381,3.1,3.1,0,0,0-.815.129q-.465.13-1.272.434l-3.441,1.325a1.863,1.863,0,0,0-.724.411.815.815,0,0,0-.19.563.827.827,0,0,0,.137.495.885.885,0,0,0,.457.3l.335.107a.671.671,0,0,1,.388.274,1.322,1.322,0,0,1,.129.685v5.969a4.931,4.931,0,0,0,1.249,3.5,4.248,4.248,0,0,0,3.259,1.34,6.415,6.415,0,0,0,2.893-.815,14.179,14.179,0,0,0,2.712-1.937,3.086,3.086,0,0,0,.729,1.419,2.444,2.444,0,0,0,1.873.906h3.792a1.28,1.28,0,0,0,.86-.236.839.839,0,0,0,.266-.663.914.914,0,0,0-.152-.518,1.032,1.032,0,0,0-.487-.365" transform="translate(-19655.701 -364.853)" fill="#30604a"></path><path id="Tracé_19835" data-name="Tracé 19835" d="M926.542,39.864a4.9,4.9,0,0,0,5.368,0,2.633,2.633,0,0,0,.982-2.155,2.591,2.591,0,0,0-.982-2.139,4.984,4.984,0,0,0-5.368,0,2.582,2.582,0,0,0-.99,2.139,2.624,2.624,0,0,0,.99,2.155" transform="translate(-19825.168 -307.881)" fill="#30604a"></path><path id="Tracé_19836" data-name="Tracé 19836" d="M928.217,112.284l-.335-.152a.6.6,0,0,1-.32-.358,2.737,2.737,0,0,1-.091-.845V100.3a1.346,1.346,0,0,0-.358-.959,1.406,1.406,0,0,0-1.074-.381,3.1,3.1,0,0,0-.815.129q-.465.13-1.271.434l-3.442,1.325a1.947,1.947,0,0,0-.731.411.909.909,0,0,0-.053,1.058.931.931,0,0,0,.465.3l.335.107a.672.672,0,0,1,.388.274,1.285,1.285,0,0,1,.129.67v7.264a2.747,2.747,0,0,1-.091.845.6.6,0,0,1-.32.358l-.35.152a1.032,1.032,0,0,0-.487.365.914.914,0,0,0-.152.518.839.839,0,0,0,.266.663,1.28,1.28,0,0,0,.86.236h6.959a1.312,1.312,0,0,0,.868-.236.827.827,0,0,0,.274-.663.914.914,0,0,0-.152-.518,1.031,1.031,0,0,0-.5-.365" transform="translate(-19819.869 -364.853)" fill="#30604a"></path><path id="Tracé_19837" data-name="Tracé 19837" d="M1031.931,49.893l-.335-.152a.6.6,0,0,1-.32-.358,2.746,2.746,0,0,1-.091-.845V30.021a1.363,1.363,0,0,0-.35-.959,1.318,1.318,0,0,0-1.02-.381,3.248,3.248,0,0,0-.921.137q-.465.137-1.226.427l-3.441,1.325a1.87,1.87,0,0,0-.739.411.814.814,0,0,0-.19.563.8.8,0,0,0,.145.495.93.93,0,0,0,.449.3l.35.107a.637.637,0,0,1,.381.274,1.4,1.4,0,0,1,.122.685v3.824a6.44,6.44,0,0,0-2.969-.657,7.7,7.7,0,0,0-3.982,1.035,7.384,7.384,0,0,0-2.771,2.893,8.929,8.929,0,0,0-1.013,4.34,8.271,8.271,0,0,0,.822,3.776,6.427,6.427,0,0,0,2.253,2.558,5.828,5.828,0,0,0,3.244.929,6.013,6.013,0,0,0,3.693-1.211,9.729,9.729,0,0,0,1.069-.934,2.433,2.433,0,0,0,.644.987,2.473,2.473,0,0,0,1.766.731h3.944a1.282,1.282,0,0,0,.86-.236.839.839,0,0,0,.266-.662.949.949,0,0,0-.145-.518.985.985,0,0,0-.5-.365m-7.37-1.492a2.36,2.36,0,0,1-1.538.563,1.769,1.769,0,0,1-1.218-.48,3.273,3.273,0,0,1-.845-1.53,10.016,10.016,0,0,1-.312-2.771,12.468,12.468,0,0,1,.3-3.03,3.48,3.48,0,0,1,.838-1.66,1.76,1.76,0,0,1,1.256-.518,2.351,2.351,0,0,1,1.348.419,3.245,3.245,0,0,1,.358.29v8.553c-.06.059-.121.114-.183.165" transform="translate(-19903.697 -302.462)" fill="#30604a"></path><path id="Tracé_19838" data-name="Tracé 19838" d="M1210.025,110.91a.435.435,0,0,0-.259.076,1.707,1.707,0,0,0-.213.183q-.137.137-.3.274a.622.622,0,0,1-.419.137.538.538,0,0,1-.449-.182.762.762,0,0,1-.145-.487v-7.279a3.814,3.814,0,0,0-1.569-3.22,7.936,7.936,0,0,0-4.781-1.18,13.506,13.506,0,0,0-4.6.67,6.789,6.789,0,0,0-2.733,1.667,3,3,0,0,0-.906,2,2.036,2.036,0,0,0,.67,1.629,3.057,3.057,0,0,0,2.04.579,3.9,3.9,0,0,0,2.5-.7,2.382,2.382,0,0,0,.868-1.964v-1.66a.594.594,0,0,1,.3-.525,1.256,1.256,0,0,1,.693-.19,1.075,1.075,0,0,1,.845.35,1.346,1.346,0,0,1,.312.929V106.7l-.053-.012a8.764,8.764,0,0,0-1.561-.122,9.754,9.754,0,0,0-5.292,1.211,3.728,3.728,0,0,0-1.881,3.281,3.237,3.237,0,0,0,1.3,2.619,5.276,5.276,0,0,0,3.418,1.051,7.456,7.456,0,0,0,2.969-.594,4.968,4.968,0,0,0,1.723-1.18,2.382,2.382,0,0,0,.919,1.058,4.817,4.817,0,0,0,2.749.716,5.037,5.037,0,0,0,2.4-.518,3.852,3.852,0,0,0,1.446-1.249,2.565,2.565,0,0,0,.48-1.4.931.931,0,0,0-.107-.472.388.388,0,0,0-.365-.183m-10.035.541a2.287,2.287,0,0,1-.426-1.5A2.152,2.152,0,0,1,1200,108.5a1.479,1.479,0,0,1,1.18-.5,2.354,2.354,0,0,1,.617.076c.027.007.056.021.084.03v3.679a1.747,1.747,0,0,1-.761.174,1.4,1.4,0,0,1-1.127-.51" transform="translate(-20062.68 -365.093)" fill="#30604a"></path><path id="Tracé_19839" data-name="Tracé 19839" d="M1373.294,102.446a6.432,6.432,0,0,0-2.254-2.558,5.829,5.829,0,0,0-3.244-.929,6.006,6.006,0,0,0-3.685,1.2,9.644,9.644,0,0,0-1.035.9V100.3a1.347,1.347,0,0,0-.358-.96,1.406,1.406,0,0,0-1.073-.381,3.394,3.394,0,0,0-.876.129,10.25,10.25,0,0,0-1.21.434l-3.137,1.34a2.581,2.581,0,0,0-.731.419.715.715,0,0,0-.2.54.794.794,0,0,0,.145.495.927.927,0,0,0,.449.3l.35.107a.639.639,0,0,1,.381.274,1.353,1.353,0,0,1,.122.67v14.36a2.75,2.75,0,0,1-.091.845.616.616,0,0,1-.3.358l-.35.152a1.03,1.03,0,0,0-.488.365.912.912,0,0,0-.152.518.839.839,0,0,0,.267.663,1.281,1.281,0,0,0,.86.236h6.959a1.282,1.282,0,0,0,.86-.236.839.839,0,0,0,.266-.663.949.949,0,0,0-.145-.518.985.985,0,0,0-.495-.365l-.335-.152a.6.6,0,0,1-.32-.358,2.74,2.74,0,0,1-.091-.845V113.83a6.437,6.437,0,0,0,2.969.661,7.7,7.7,0,0,0,3.982-1.035,7.383,7.383,0,0,0,2.771-2.893,8.93,8.93,0,0,0,1.013-4.34,8.274,8.274,0,0,0-.822-3.776m-6.114,7.454a3.485,3.485,0,0,1-.838,1.667,1.76,1.76,0,0,1-1.256.518,2.347,2.347,0,0,1-1.348-.419,3.254,3.254,0,0,1-.358-.29v-8.553c.063-.062.126-.12.19-.172a2.35,2.35,0,0,1,1.53-.571,1.773,1.773,0,0,1,1.233.487,3.285,3.285,0,0,1,.838,1.538,10.255,10.255,0,0,1,.3,2.771,12.482,12.482,0,0,1-.3,3.023" transform="translate(-20206.854 -364.852)" fill="#30604a"></path><path id="Tracé_19840" data-name="Tracé 19840" d="M444.179,36.9h0a.8.8,0,0,1-.8-.8V.809a.8.8,0,1,1,1.609,0V36.091a.8.8,0,0,1-.8.8" transform="translate(-19397.109 -277.004)" fill="#30604a"></path><path id="Tracé_19841" data-name="Tracé 19841" d="M193.967,117.077a.855.855,0,0,0,1.328-.155,11.975,11.975,0,0,0,.8-1.486.857.857,0,0,0-.173-.958l-2.349-2.349h2.692a.854.854,0,0,0,.853-.791q.029-.406.029-.818t-.029-.818a.854.854,0,0,0-.853-.791h-2.692l2.349-2.349a.857.857,0,0,0,.173-.958,11.99,11.99,0,0,0-.8-1.486.855.855,0,0,0-1.328-.154l-5.954,5.954a.852.852,0,0,0,0,1.2Z" transform="translate(-19170.188 -369.075)" fill="#30604a"></path><path id="Tracé_19842" data-name="Tracé 19842" d="M36.883,17.863A18.446,18.446,0,1,0,12.5,35.911a.852.852,0,0,0,1.12-.811V33.487a.855.855,0,0,0-.562-.8,15.23,15.23,0,1,1,10.753.009.842.842,0,0,0-.537.791V35.1a.852.852,0,0,0,1.119.811,18.45,18.45,0,0,0,12.491-18.05" transform="translate(-19003.5 -277.004)" fill="#30604a"></path><path id="Tracé_19843" data-name="Tracé 19843" d="M60.52,103.946a.849.849,0,0,0-1.315.133,12,12,0,0,0-.806,1.5.865.865,0,0,0,.169.969l2.348,2.348H58.224a.854.854,0,0,0-.853.791q-.029.405-.029.818t.029.818a.854.854,0,0,0,.853.791h2.692l-2.348,2.348a.864.864,0,0,0-.169.97,12,12,0,0,0,.806,1.5.849.849,0,0,0,1.315.133l5.954-5.954a.852.852,0,0,0,0-1.2Z" transform="translate(-19054.404 -369.056)" fill="#30604a"></path><path id="Tracé_19844" data-name="Tracé 19844" d="M117.056,60.522a.849.849,0,0,0-.133-1.315,12,12,0,0,0-1.5-.806.865.865,0,0,0-.969.169l-2.348,2.348V58.226a.854.854,0,0,0-.791-.853q-.405-.029-.818-.029t-.818.029a.854.854,0,0,0-.791.853v2.692l-2.348-2.348a.864.864,0,0,0-.969-.169,12.026,12.026,0,0,0-1.5.806.849.849,0,0,0-.133,1.315l5.954,5.954a.852.852,0,0,0,1.2,0Z" transform="translate(-19095.553 -327.908)" fill="#30604a"></path><path id="Tracé_19845" data-name="Tracé 19845" d="M117.056,193.966l-5.954-5.954a.852.852,0,0,0-1.2,0l-.757.757h0l-5.2,5.2a.85.85,0,0,0,.133,1.315,12.017,12.017,0,0,0,1.5.806.864.864,0,0,0,.969-.169l2.348-2.348v9.138a.853.853,0,0,0,.811.853q.4.019.8.019t.8-.02a.853.853,0,0,0,.81-.853v-6.445h0v-2.692l2.348,2.348a.865.865,0,0,0,.97.169,12,12,0,0,0,1.5-.806.849.849,0,0,0,.133-1.315" transform="translate(-19095.553 -443.689)" fill="#30604a"></path></g></svg> 