<svg xmlns="http://www.w3.org/2000/svg" width="170.762" height="36.892" viewBox="0 0 170.762 36.892">
  <g fill="#30604a" data-name="logo menu">
    <path d="M82.107 7.939a2.76 2.76 0 0 0-1.919-.67 4.6 4.6 0 0 0-2.832 1.005 7.07 7.07 0 0 0-2.162 3.091l-.011.027a14 14 0 0 0-2.425-.195 12.3 12.3 0 0 0-4.56.761 6.6 6.6 0 0 0-2.931 2.124 5.15 5.15 0 0 0-1.02 3.175 4.57 4.57 0 0 0 .906 2.771 6 6 0 0 0 2.665 1.949 8.7 8.7 0 0 0 1.4.429 7 7 0 0 0-1.456.355 3.5 3.5 0 0 0-1.675 1.157 2.67 2.67 0 0 0-.495 1.561 2.22 2.22 0 0 0 .472 1.439 3.14 3.14 0 0 0 1.4.865 6.3 6.3 0 0 0-2.576.9 2.22 2.22 0 0 0-.366 3.5 4.9 4.9 0 0 0 2.414 1.1 23 23 0 0 0 4.781.388q4.994 0 7.6-1.507t2.6-3.837a3.46 3.46 0 0 0-.693-2.216 4.6 4.6 0 0 0-2.208-1.386 19.2 19.2 0 0 0-4.028-.769q-2.071-.213-2.977-.366a4 4 0 0 1-1.127-.289q-.221-.137-.221-.274a.35.35 0 0 1 .122-.266.8.8 0 0 1 .159-.11q.554.04 1.151.041a12.4 12.4 0 0 0 4.568-.754 6.53 6.53 0 0 0 2.924-2.124 5.2 5.2 0 0 0 1.02-3.183 4.57 4.57 0 0 0-.906-2.771 6 6 0 0 0-2.65-1.949 7 7 0 0 0-.564-.2 3.6 3.6 0 0 1 .358-.589 1.13 1.13 0 0 1 .929-.442 1.3 1.3 0 0 1 .868.259 3 3 0 0 1 .541.617 2.5 2.5 0 0 0 .579.617 1.63 1.63 0 0 0 1 .259 1.87 1.87 0 0 0 1.523-.708 2.83 2.83 0 0 0 .579-1.85 2.47 2.47 0 0 0-.746-1.934M71.357 28.557q1.888.228 2.962.442a4.8 4.8 0 0 1 1.523.495.86.86 0 0 1 .449.754 1.15 1.15 0 0 1-.3.8 1.94 1.94 0 0 1-1.043.487 10.7 10.7 0 0 1-2.116.16 5.63 5.63 0 0 1-3.3-.708 2.3 2.3 0 0 1-.914-1.926 2.2 2.2 0 0 1 .076-.586 1.2 1.2 0 0 1 .131-.313q1.047.222 2.534.4m2.733-8.885q-.16 1.028-.906 1.18a1 1 0 0 1-.891-.267 3 3 0 0 1-.723-1.211 15 15 0 0 1-.594-2.193 13.6 13.6 0 0 1-.274-2.261 3.2 3.2 0 0 1 .221-1.4.94.94 0 0 1 .723-.571q.731-.152 1.271.739a9.5 9.5 0 0 1 .937 2.916 9.7 9.7 0 0 1 .236 3.068" data-name="Tracé 19833"/>
    <path d="m100.898 24.431-.35-.152a.6.6 0 0 1-.32-.358 2.7 2.7 0 0 1-.091-.845V12.447a1.38 1.38 0 0 0-.343-.959 1.3 1.3 0 0 0-1.013-.381 3.2 3.2 0 0 0-.921.137q-.465.137-1.226.426l-3.457 1.325a1.9 1.9 0 0 0-.723.411.8.8 0 0 0-.19.563.83.83 0 0 0 .137.495.9.9 0 0 0 .457.3l.35.107a.67.67 0 0 1 .373.274 1.3 1.3 0 0 1 .129.685v6.483a3 3 0 0 1-.632.323 3 3 0 0 1-1.043.2 1.62 1.62 0 0 1-1.256-.487 2.07 2.07 0 0 1-.449-1.447v-8.455a1.35 1.35 0 0 0-.358-.959 1.4 1.4 0 0 0-1.074-.381 3 3 0 0 0-.815.129q-.465.13-1.272.434l-3.441 1.325a1.9 1.9 0 0 0-.724.411.82.82 0 0 0-.19.563.83.83 0 0 0 .137.495.9.9 0 0 0 .457.3l.335.107a.67.67 0 0 1 .388.274 1.3 1.3 0 0 1 .129.685v5.969a4.93 4.93 0 0 0 1.249 3.5 4.25 4.25 0 0 0 3.259 1.34 6.4 6.4 0 0 0 2.893-.815 14.2 14.2 0 0 0 2.712-1.937 3.1 3.1 0 0 0 .729 1.419 2.44 2.44 0 0 0 1.873.906h3.792a1.28 1.28 0 0 0 .86-.236.84.84 0 0 0 .266-.663.9.9 0 0 0-.152-.518 1.03 1.03 0 0 0-.487-.365" data-name="Tracé 19834"/>
    <path d="M104.873 8.983a4.9 4.9 0 0 0 5.368 0 2.63 2.63 0 0 0 .982-2.155 2.59 2.59 0 0 0-.982-2.139 4.98 4.98 0 0 0-5.368 0 2.58 2.58 0 0 0-.99 2.139 2.62 2.62 0 0 0 .99 2.155" data-name="Tracé 19835"/>
    <path d="m111.847 24.431-.335-.152a.6.6 0 0 1-.32-.358 2.7 2.7 0 0 1-.091-.845V12.447a1.35 1.35 0 0 0-.358-.959 1.4 1.4 0 0 0-1.074-.381 3 3 0 0 0-.815.129q-.465.13-1.271.434l-3.442 1.325a1.95 1.95 0 0 0-.731.411.91.91 0 0 0-.053 1.058.93.93 0 0 0 .465.3l.335.107a.67.67 0 0 1 .388.274 1.3 1.3 0 0 1 .129.67v7.264a2.8 2.8 0 0 1-.091.845.6.6 0 0 1-.32.358l-.35.152a1.03 1.03 0 0 0-.487.365.9.9 0 0 0-.152.518.84.84 0 0 0 .266.663 1.28 1.28 0 0 0 .86.236h6.959a1.3 1.3 0 0 0 .868-.236.83.83 0 0 0 .274-.663.9.9 0 0 0-.152-.518 1.03 1.03 0 0 0-.5-.365" data-name="Tracé 19836"/>
    <path d="m131.733 24.431-.335-.152a.6.6 0 0 1-.32-.358 2.8 2.8 0 0 1-.091-.845V4.559a1.36 1.36 0 0 0-.35-.959 1.32 1.32 0 0 0-1.02-.381 3.3 3.3 0 0 0-.921.137q-.465.137-1.226.427l-3.441 1.325a1.9 1.9 0 0 0-.739.411.8.8 0 0 0-.19.563.8.8 0 0 0 .145.495.93.93 0 0 0 .449.3l.35.107a.64.64 0 0 1 .381.274 1.4 1.4 0 0 1 .122.685v3.824a6.44 6.44 0 0 0-2.969-.657 7.7 7.7 0 0 0-3.982 1.035 7.4 7.4 0 0 0-2.771 2.893 8.9 8.9 0 0 0-1.013 4.34 8.3 8.3 0 0 0 .822 3.776 6.43 6.43 0 0 0 2.253 2.558 5.83 5.83 0 0 0 3.244.929 6 6 0 0 0 3.693-1.211 10 10 0 0 0 1.069-.934 2.4 2.4 0 0 0 .644.987 2.47 2.47 0 0 0 1.766.731h3.944a1.28 1.28 0 0 0 .86-.236.84.84 0 0 0 .266-.662.95.95 0 0 0-.145-.518 1 1 0 0 0-.5-.365m-7.37-1.492a2.36 2.36 0 0 1-1.538.563 1.77 1.77 0 0 1-1.218-.48 3.27 3.27 0 0 1-.845-1.53 10 10 0 0 1-.312-2.771 12.5 12.5 0 0 1 .3-3.03 3.5 3.5 0 0 1 .838-1.66 1.76 1.76 0 0 1 1.256-.518 2.35 2.35 0 0 1 1.348.419 3 3 0 0 1 .358.29v8.553a3 3 0 0 1-.183.165" data-name="Tracé 19837"/>
    <path d="M150.844 22.817a.44.44 0 0 0-.259.076 2 2 0 0 0-.213.183q-.137.137-.3.274a.62.62 0 0 1-.419.137.54.54 0 0 1-.449-.182.76.76 0 0 1-.145-.487v-7.279a3.81 3.81 0 0 0-1.569-3.22 7.94 7.94 0 0 0-4.781-1.18 13.5 13.5 0 0 0-4.6.67 6.8 6.8 0 0 0-2.733 1.667 3 3 0 0 0-.906 2 2.04 2.04 0 0 0 .67 1.629 3.06 3.06 0 0 0 2.04.579 3.9 3.9 0 0 0 2.5-.7 2.38 2.38 0 0 0 .868-1.964v-1.66a.6.6 0 0 1 .3-.525 1.26 1.26 0 0 1 .693-.19 1.08 1.08 0 0 1 .845.35 1.35 1.35 0 0 1 .312.929v4.683l-.053-.012a9 9 0 0 0-1.561-.122 9.75 9.75 0 0 0-5.292 1.211 3.73 3.73 0 0 0-1.881 3.281 3.24 3.24 0 0 0 1.3 2.619 5.28 5.28 0 0 0 3.418 1.051 7.5 7.5 0 0 0 2.969-.594 5 5 0 0 0 1.723-1.18 2.4 2.4 0 0 0 .919 1.058 4.8 4.8 0 0 0 2.749.716 5.04 5.04 0 0 0 2.4-.518 3.85 3.85 0 0 0 1.446-1.249 2.57 2.57 0 0 0 .48-1.4.93.93 0 0 0-.107-.472.39.39 0 0 0-.365-.183m-10.035.541a2.3 2.3 0 0 1-.426-1.5 2.15 2.15 0 0 1 .437-1.447 1.48 1.48 0 0 1 1.18-.5 2.4 2.4 0 0 1 .617.076c.027.007.056.021.084.03v3.679a1.75 1.75 0 0 1-.761.174 1.4 1.4 0 0 1-1.127-.51" data-name="Tracé 19838"/>
    <path d="M169.939 14.594a6.43 6.43 0 0 0-2.254-2.558 5.83 5.83 0 0 0-3.244-.929 6 6 0 0 0-3.685 1.2 10 10 0 0 0-1.035.9v-.759a1.35 1.35 0 0 0-.358-.96 1.4 1.4 0 0 0-1.073-.381 3.4 3.4 0 0 0-.876.129 10 10 0 0 0-1.21.434l-3.137 1.34a2.6 2.6 0 0 0-.731.419.72.72 0 0 0-.2.54.8.8 0 0 0 .145.495.93.93 0 0 0 .449.3l.35.107a.64.64 0 0 1 .381.274 1.35 1.35 0 0 1 .122.67v14.36a2.8 2.8 0 0 1-.091.845.62.62 0 0 1-.3.358l-.35.152a1.03 1.03 0 0 0-.488.365.9.9 0 0 0-.152.518.84.84 0 0 0 .267.663 1.28 1.28 0 0 0 .86.236h6.959a1.28 1.28 0 0 0 .86-.236.84.84 0 0 0 .266-.663.95.95 0 0 0-.145-.518 1 1 0 0 0-.495-.365l-.335-.152a.6.6 0 0 1-.32-.358 2.7 2.7 0 0 1-.091-.845v-4.197a6.44 6.44 0 0 0 2.969.661 7.7 7.7 0 0 0 3.982-1.035 7.4 7.4 0 0 0 2.771-2.893 8.9 8.9 0 0 0 1.013-4.34 8.3 8.3 0 0 0-.822-3.776m-6.114 7.454a3.5 3.5 0 0 1-.838 1.667 1.76 1.76 0 0 1-1.256.518 2.35 2.35 0 0 1-1.348-.419 3 3 0 0 1-.358-.29v-8.553q.094-.093.19-.172a2.35 2.35 0 0 1 1.53-.571 1.77 1.77 0 0 1 1.233.487 3.3 3.3 0 0 1 .838 1.538 10.3 10.3 0 0 1 .3 2.771 12.5 12.5 0 0 1-.3 3.023" data-name="Tracé 19839"/>
    <path d="M50.569 36.896a.8.8 0 0 1-.8-.8V.805a.805.805 0 1 1 1.609 0v35.282a.8.8 0 0 1-.8.8" data-name="Tracé 19840"/>
    <path d="M27.278 25.002a.855.855 0 0 0 1.328-.155 12 12 0 0 0 .8-1.486.86.86 0 0 0-.173-.958l-2.349-2.349h2.692a.854.854 0 0 0 .853-.791q.029-.406.029-.818t-.029-.818a.854.854 0 0 0-.853-.791h-2.692l2.349-2.349a.86.86 0 0 0 .173-.958 12 12 0 0 0-.8-1.486.855.855 0 0 0-1.328-.154l-5.954 5.954a.85.85 0 0 0 0 1.2Z" data-name="Tracé 19841"/>
    <path d="M36.882 17.859a18.446 18.446 0 1 0-24.383 18.048.852.852 0 0 0 1.12-.811v-1.613a.855.855 0 0 0-.562-.8 15.23 15.23 0 1 1 10.753.009.84.84 0 0 0-.537.791v1.613a.852.852 0 0 0 1.119.811 18.45 18.45 0 0 0 12.491-18.05" data-name="Tracé 19842"/>
    <path d="M9.615 11.89a.85.85 0 0 0-1.315.133 12 12 0 0 0-.806 1.5.865.865 0 0 0 .169.969l2.348 2.348H7.319a.854.854 0 0 0-.853.791q-.029.405-.029.818t.029.818a.854.854 0 0 0 .853.791h2.692l-2.348 2.348a.86.86 0 0 0-.169.97 12 12 0 0 0 .806 1.5.85.85 0 0 0 1.315.133l5.954-5.954a.85.85 0 0 0 0-1.2Z" data-name="Tracé 19843"/>
    <path d="M25.002 9.614a.85.85 0 0 0-.133-1.315 12 12 0 0 0-1.5-.806.865.865 0 0 0-.969.169l-2.348 2.348V7.318a.854.854 0 0 0-.791-.853q-.405-.029-.818-.029t-.818.029a.854.854 0 0 0-.791.853v2.692l-2.348-2.348a.86.86 0 0 0-.969-.169 12 12 0 0 0-1.5.806.85.85 0 0 0-.133 1.315l5.954 5.954a.85.85 0 0 0 1.2 0Z" data-name="Tracé 19844"/>
    <path d="m25.002 27.277-5.954-5.954a.85.85 0 0 0-1.2 0l-.757.757-5.2 5.2a.85.85 0 0 0 .133 1.315 12 12 0 0 0 1.5.806.86.86 0 0 0 .969-.169l2.348-2.348v9.138a.853.853 0 0 0 .811.853q.4.019.8.019t.8-.02a.853.853 0 0 0 .81-.853v-9.137l2.348 2.348a.865.865 0 0 0 .97.169 12 12 0 0 0 1.5-.806.85.85 0 0 0 .133-1.315" data-name="Tracé 19845"/>
  </g>
</svg>
