<svg version="1.1" width="112" height="32" viewBox="0 0 112 32" fill="currentColor">
    <path d="M31.704 3.119c0.307-0.181 0.587-0.388 0.842-0.617 0.252-0.229 0.463-0.472 0.631-0.73 0.167-0.258 0.265-0.523 0.295-0.794 0.026-0.245-0.038-0.461-0.192-0.648s-0.362-0.28-0.624-0.28c-0.245 0-0.47 0.088-0.675 0.26-0.205 0.174-0.322 0.392-0.349 0.653-0.020 0.196 0.018 0.379 0.119 0.553s0.282 0.291 0.547 0.349c-0.143 0.22-0.373 0.448-0.695 0.686s-0.66 0.441-1.017 0.609l0.198 0.406c0.309-0.119 0.617-0.269 0.924-0.45zM11.25 14.862l2.587-3.163c0.441-0.587 0.875-1.178 1.295-1.778 0.659-0.94 1.295-1.851 1.905-2.737 0.611-0.885 1.202-1.718 1.773-2.503 0.571-0.783 1.123-1.465 1.659-2.045s1.056-1.039 1.557-1.378c0.501-0.338 0.984-0.509 1.464-0.509s0.768 0.478 0.768 0.478c0.19-0.181 0.382-0.362 0.571-0.545-0.355-0.337-0.867-0.629-1.579-0.629-0.545 0-1.528 0.192-2.247 0.578s-1.42 0.904-2.104 1.555c-0.684 0.651-1.356 1.412-2.016 2.28s-1.321 1.784-1.983 2.75c-0.662 0.966-1.328 1.952-2 2.96s-1.358 1.981-2.058 2.922c-0.388 0.059-0.776 0.102-1.164 0.126-0.388 0.026-0.781 0.038-1.178 0.038-0.973 0-1.89-0.123-2.748-0.368s-1.597-0.604-2.216-1.074c-0.618-0.47-1.090-1.046-1.416-1.727-0.326-0.682-0.443-1.454-0.349-2.318 0.082-0.77 0.306-1.497 0.671-2.179s0.847-1.277 1.447-1.784c0.6-0.509 1.312-0.907 2.135-1.2s1.734-0.437 2.733-0.437c0.567 0 1.092 0.046 1.573 0.139s0.893 0.196 1.237 0.306c0.344 0.11 0.613 0.214 0.805 0.311s0.293 0.146 0.302 0.146l0.392-0.571c-0.024-0.009-0.145-0.068-0.362-0.177s-0.52-0.225-0.909-0.342c-0.39-0.119-0.854-0.229-1.394-0.329-0.54-0.102-1.143-0.152-1.813-0.152-1.059 0-2.064 0.143-3.017 0.426s-1.8 0.695-2.539 1.231c-0.739 0.538-1.345 1.2-1.819 1.987s-0.765 1.689-0.873 2.706c-0.091 0.864 0.009 1.67 0.307 2.42 0.296 0.75 0.776 1.401 1.436 1.956s1.495 0.99 2.503 1.308c1.008 0.318 2.175 0.476 3.505 0.476 0.364 0 0.725-0.011 1.083-0.031s0.714-0.053 1.065-0.095c-0.529 0.67-1.065 1.295-1.61 1.879s-1.109 1.109-1.692 1.575c-0.538-0.119-1.068-0.216-1.595-0.293-0.525-0.077-1.050-0.113-1.575-0.113-1.202 0-2.115 0.145-2.739 0.432s-0.964 0.699-1.021 1.231c-0.044 0.406 0.104 0.732 0.441 0.979 0.338 0.245 0.849 0.368 1.535 0.368 0.805 0 1.583-0.117 2.336-0.349s1.486-0.553 2.199-0.959c0.54 0.177 1.089 0.36 1.643 0.547 0.556 0.187 1.114 0.357 1.672 0.514 0.56 0.157 1.114 0.284 1.669 0.381 0.553 0.097 1.105 0.146 1.654 0.146s1.023-0.044 1.469-0.134c0.446-0.090 0.847-0.201 1.204-0.337s0.671-0.282 0.942-0.439c0.271-0.157 0.498-0.306 0.682-0.445s0.324-0.258 0.419-0.355c0.095-0.097 0.146-0.15 0.157-0.159l-0.478-0.406c-0.551 0.474-1.087 0.805-1.612 0.992-0.523 0.187-1.057 0.28-1.599 0.28-0.364 0-0.778-0.053-1.24-0.159s-0.964-0.238-1.502-0.393c-0.538-0.157-1.105-0.331-1.703-0.521s-0.946-0.37-1.572-0.54c0.719-0.551 1.411-1.167 2.077-1.848 0.284-0.289 0.564-0.589 0.842-0.895zM3.789 19.021c-0.578 0.174-1.18 0.26-1.806 0.26-0.287 0-0.518-0.024-0.692-0.070-0.172-0.048-0.306-0.104-0.401-0.172s-0.156-0.143-0.187-0.221c-0.029-0.081-0.040-0.156-0.033-0.221 0.024-0.22 0.177-0.415 0.463-0.584 0.285-0.17 0.715-0.254 1.292-0.254 0.483 0 0.979 0.051 1.489 0.152 0.51 0.102 1.036 0.232 1.577 0.393-0.558 0.306-1.125 0.543-1.703 0.717zM107.379 4.218c-0.604 0.073-1.186 0.243-1.734 0.481-0.070-1.257-0.51-2.512-1.409-3.447-1.886-2.042-5.26-1.513-6.391 1.054-0.476 1.182-0.353 2.362-0.016 3.5 1.361 3.136 0.993 6.561-0.584 9.237-1.7 2.722-4.665 4.501-8.002 4.44-0.011 0-0.024 0-0.035 0-0.357 0-0.673-0.064-0.951-0.192s-0.51-0.304-0.699-0.527c-0.187-0.223-0.329-0.483-0.424-0.781-0.095-0.296-0.145-0.609-0.145-0.939 0-0.11 0.005-0.22 0.015-0.329s0.022-0.22 0.042-0.329c0.492-0.009 1.014-0.073 1.561-0.192s1.090-0.278 1.63-0.479c0.538-0.201 1.054-0.445 1.548-0.732s0.926-0.611 1.301-0.972c0.375-0.36 0.673-0.754 0.897-1.178s0.335-0.878 0.335-1.363c0-0.357-0.062-0.662-0.185-0.917-0.123-0.256-0.284-0.461-0.479-0.617s-0.417-0.269-0.664-0.342c-0.247-0.073-0.488-0.11-0.726-0.11-0.366 0-0.785 0.090-1.261 0.267s-0.961 0.426-1.458 0.746c-0.498 0.32-0.988 0.706-1.473 1.158-0.483 0.452-0.913 0.951-1.288 1.5-0.326 0.476-0.593 0.986-0.811 1.526-0.302 0.448-0.639 0.902-1.012 1.363-0.452 0.556-0.946 1.061-1.478 1.513-0.534 0.452-1.098 0.82-1.691 1.103s-1.206 0.424-1.835 0.424c-0.32 0-0.607-0.044-0.864-0.13s-0.474-0.231-0.657-0.432c-0.183-0.201-0.324-0.461-0.424-0.781s-0.15-0.708-0.15-1.164c0-0.565 0.071-1.129 0.212-1.691s0.333-1.094 0.574-1.595c0.242-0.501 0.529-0.968 0.864-1.396 0.333-0.43 0.692-0.8 1.074-1.109 0.384-0.311 0.783-0.554 1.198-0.732s0.829-0.267 1.239-0.267c0.501 0 0.869 0.084 1.101 0.252s0.349 0.399 0.349 0.692c0 0.165-0.027 0.32-0.082 0.465h-0.165c-0.274 0-0.487 0.046-0.637 0.137s-0.263 0.194-0.335 0.307c-0.073 0.113-0.117 0.221-0.13 0.322-0.015 0.101-0.020 0.156-0.020 0.165 0 0.201 0.073 0.368 0.22 0.499s0.32 0.199 0.52 0.199 0.386-0.068 0.554-0.205c0.168-0.137 0.311-0.307 0.424-0.514 0.113-0.205 0.203-0.432 0.267-0.679s0.095-0.479 0.095-0.699c0-0.137-0.029-0.302-0.090-0.492s-0.172-0.375-0.335-0.547c-0.165-0.174-0.388-0.322-0.671-0.445s-0.648-0.185-1.096-0.185-0.906 0.081-1.403 0.24c-0.498 0.159-0.992 0.39-1.478 0.692-0.488 0.302-0.957 0.67-1.403 1.103-0.448 0.434-0.842 0.92-1.184 1.458-0.342 0.54-0.617 1.125-0.821 1.76-0.011 0.031-0.016 0.064-0.026 0.095l-0.007-0.005c-0.357 0.547-0.754 1.127-1.191 1.74-0.437 0.611-0.878 1.178-1.321 1.698s-0.878 0.951-1.308 1.294c-0.43 0.342-0.818 0.514-1.164 0.514-0.11 0-0.21-0.037-0.302-0.11s-0.137-0.214-0.137-0.424c0-0.274 0.070-0.578 0.205-0.911 0.137-0.333 0.311-0.682 0.52-1.048 0.21-0.366 0.434-0.745 0.671-1.136s0.461-0.792 0.671-1.198c0.21-0.406 0.382-0.812 0.52-1.219s0.205-0.805 0.205-1.198c0-0.483-0.071-0.878-0.212-1.184s-0.313-0.545-0.514-0.719c-0.201-0.174-0.415-0.293-0.644-0.357s-0.43-0.095-0.602-0.095c-0.201 0-0.424 0.033-0.671 0.095-0.247 0.064-0.516 0.172-0.809 0.322s-0.611 0.353-0.959 0.609c-0.348 0.256-0.721 0.58-1.123 0.972 0.055-0.256 0.082-0.501 0.082-0.739 0-0.302-0.042-0.565-0.123-0.794-0.082-0.229-0.194-0.423-0.335-0.582s-0.306-0.28-0.492-0.362c-0.187-0.082-0.381-0.123-0.582-0.123-0.375 0-0.728 0.121-1.061 0.362s-0.675 0.582-1.026 1.021-0.717 0.961-1.096 1.568c-0.379 0.607-0.801 1.275-1.266 2.007-1.105 1.762-2.214 3.050-3.328 3.862s-2.269 1.218-3.465 1.218c-0.357 0-0.673-0.064-0.951-0.192s-0.51-0.304-0.699-0.527c-0.187-0.223-0.329-0.483-0.424-0.781-0.095-0.296-0.145-0.609-0.145-0.939 0-0.11 0.005-0.22 0.015-0.329s0.022-0.22 0.042-0.329c0.492-0.009 1.014-0.073 1.561-0.192s1.090-0.278 1.63-0.479c0.538-0.201 1.054-0.445 1.548-0.732s0.926-0.611 1.301-0.972c0.375-0.36 0.673-0.754 0.897-1.178s0.335-0.878 0.335-1.363c0-0.357-0.062-0.662-0.185-0.917-0.123-0.256-0.284-0.461-0.479-0.617s-0.417-0.269-0.664-0.342c-0.247-0.073-0.488-0.11-0.726-0.11-0.366 0-0.785 0.090-1.261 0.267s-0.961 0.426-1.458 0.746c-0.498 0.32-0.988 0.706-1.473 1.158-0.483 0.452-0.913 0.951-1.288 1.5-0.375 0.547-0.679 1.14-0.911 1.773-0.029 0.079-0.051 0.159-0.075 0.238-0.207 0.282-0.415 0.553-0.629 0.81-0.403 0.485-0.851 0.95-1.348 1.396-0.498 0.448-1.061 0.891-1.691 1.328s-1.361 0.895-2.192 1.37c0.32-0.721 0.655-1.456 1.006-2.205s0.699-1.475 1.041-2.177c0.342-0.703 0.671-1.367 0.986-1.992s0.591-1.171 0.829-1.637c0.238-0.465 0.43-0.838 0.574-1.116 0.146-0.278 0.22-0.423 0.22-0.432l-0.452-0.302-0.739 0.972c-0.082-0.146-0.187-0.302-0.315-0.465s-0.302-0.317-0.52-0.459c-0.22-0.141-0.487-0.26-0.801-0.357-0.315-0.095-0.697-0.145-1.143-0.145s-0.964 0.088-1.52 0.26c-0.556 0.174-1.116 0.417-1.678 0.732s-1.107 0.697-1.636 1.143c-0.529 0.448-0.999 0.942-1.411 1.486-0.41 0.543-0.739 1.131-0.986 1.76s-0.37 1.288-0.37 1.972c0 0.565 0.090 1.041 0.267 1.423 0.177 0.384 0.408 0.692 0.692 0.924s0.598 0.399 0.944 0.499c0.348 0.101 0.693 0.15 1.041 0.15 0.465 0 0.951-0.099 1.458-0.295s0.997-0.454 1.473-0.774c-0.128 0.293-0.265 0.615-0.412 0.966s-0.306 0.723-0.479 1.116c-1.416 0.739-2.682 1.475-3.8 2.205s-2.064 1.465-2.834 2.205c-0.772 0.739-1.361 1.484-1.767 2.232s-0.609 1.506-0.609 2.274c0 0.403 0.066 0.73 0.199 0.986 0.132 0.256 0.298 0.456 0.499 0.602s0.417 0.243 0.651 0.295c0.232 0.049 0.45 0.075 0.651 0.075 0.492 0 1.048-0.165 1.663-0.492 0.617-0.329 1.283-0.9 2-1.712s1.476-1.916 2.28-3.308c0.803-1.392 1.639-3.152 2.506-5.28 1.050-0.629 1.956-1.207 2.719-1.733s1.429-1.036 2-1.533c0.521-0.454 0.977-0.913 1.378-1.374-0.007 0.113-0.015 0.225-0.015 0.34 0 0.639 0.121 1.173 0.362 1.603s0.547 0.772 0.918 1.026c0.37 0.256 0.774 0.437 1.211 0.547s0.854 0.165 1.246 0.165c0.538 0 1.105-0.095 1.698-0.287s1.198-0.501 1.815-0.931c0.617-0.43 1.235-0.988 1.855-1.678s1.396-1.771 1.998-2.775v0c0.101-0.156 0.214-0.337 0.344-0.545 0.192-0.311 0.397-0.639 0.617-0.986s0.45-0.695 0.692-1.048c0.242-0.351 0.481-0.666 0.719-0.944s0.468-0.507 0.692-0.684c0.223-0.177 0.423-0.267 0.596-0.267s0.293 0.038 0.384 0.117c0.091 0.077 0.137 0.24 0.137 0.487 0 0.22-0.051 0.509-0.15 0.869-0.101 0.36-0.284 0.814-0.547 1.363-0.183 0.366-0.379 0.739-0.589 1.123s-0.432 0.765-0.664 1.143c-0.232 0.379-0.468 0.746-0.704 1.103-0.238 0.357-0.47 0.69-0.699 0.999l-1.603 2.205 1.206 0.492c0.11-0.137 0.232-0.298 0.37-0.487 0.137-0.187 0.284-0.384 0.437-0.589 0.156-0.205 0.311-0.413 0.465-0.624 0.156-0.21 0.311-0.415 0.465-0.617 0.357-0.465 0.721-0.95 1.096-1.451 0.657-0.867 1.266-1.641 1.828-2.322s1.079-1.253 1.555-1.718c0.474-0.465 0.904-0.82 1.288-1.061s0.721-0.362 1.014-0.362c0.274 0 0.487 0.095 0.637 0.287s0.227 0.43 0.227 0.712c0 0.247-0.081 0.542-0.24 0.884s-0.359 0.715-0.596 1.116c-0.238 0.403-0.498 0.823-0.781 1.266s-0.543 0.884-0.781 1.321-0.435 0.865-0.596 1.281c-0.159 0.415-0.24 0.801-0.24 1.156 0 0.22 0.042 0.426 0.123 0.624 0.082 0.196 0.194 0.368 0.335 0.514s0.313 0.26 0.514 0.342c0.201 0.082 0.424 0.123 0.671 0.123 0.428 0 0.856-0.123 1.281-0.37s0.838-0.56 1.239-0.939c0.403-0.379 0.778-0.794 1.131-1.246 0.351-0.452 0.668-0.886 0.951-1.301 0.128-0.188 0.245-0.364 0.355-0.534-0.005 0.106-0.011 0.212-0.011 0.322 0 0.602 0.093 1.123 0.28 1.561s0.439 0.796 0.754 1.076c0.315 0.278 0.681 0.487 1.096 0.624s0.851 0.205 1.308 0.205c0.574 0 1.164-0.104 1.767-0.315 0.602-0.21 1.197-0.525 1.78-0.944s1.154-0.942 1.712-1.568c0.154-0.172 0.306-0.355 0.454-0.543-0.013 0.159-0.020 0.32-0.020 0.483 0 0.639 0.121 1.173 0.362 1.603s0.547 0.772 0.918 1.026c0.37 0.256 0.774 0.437 1.211 0.547 0.43 0.108 0.84 0.161 1.226 0.163v0s0.007 0 0.009 0c0.004 0 0.007 0 0.011 0 0.038 0 0.077 0 0.115 0v-0.006c0.679-0.016 1.356-0.086 2.022-0.22 2.135-0.437 4.106-1.626 5.496-3.297 0.373-0.443 0.708-0.917 1.006-1.412 0.467-0.732 0.845-1.519 1.116-2.342 0.468-1.37 0.679-2.838 0.573-4.303-0.070-1.906-1.379-3.955-0.507-5.811 0.778-1.559 2.918-1.886 4.135-0.602 0.834 0.8 1.242 2.049 1.312 3.335 0 0 0.055 1.015 0.055 1.015 0.858-0.624 1.875-1.25 2.927-1.387 2.525-0.446 4.51 1.692 3.429 4.118-0.704 1.471-2.472 2.066-4.034 2.093-1.691 0.11-3.414 0.273-5.039 0.816l0.040 0.132c1.634-0.434 3.328-0.496 5.017-0.523 0.856 0.005 1.776-0.081 2.583-0.434 1.261-0.487 2.34-1.7 2.453-3.107 0.346-2.66-2.106-4.442-4.585-4.1zM88.227 13.596c0.443-0.684 0.915-1.281 1.418-1.787 0.501-0.507 1.004-0.904 1.506-1.191s0.953-0.432 1.356-0.432c0.183 0 0.34 0.073 0.472 0.22s0.199 0.342 0.199 0.589-0.064 0.525-0.192 0.836c-0.128 0.311-0.311 0.635-0.547 0.972-0.238 0.338-0.532 0.671-0.884 0.999-0.351 0.329-0.752 0.633-1.198 0.911-0.448 0.278-0.94 0.514-1.478 0.706s-1.114 0.32-1.725 0.384c0.274-0.785 0.633-1.52 1.076-2.205zM54.831 13.596c0.443-0.684 0.915-1.281 1.418-1.787 0.501-0.507 1.004-0.904 1.506-1.191s0.953-0.432 1.356-0.432c0.183 0 0.34 0.073 0.472 0.22s0.199 0.342 0.199 0.589-0.064 0.525-0.192 0.836c-0.128 0.311-0.311 0.635-0.547 0.972-0.238 0.338-0.532 0.671-0.884 0.999-0.351 0.329-0.752 0.633-1.198 0.911-0.448 0.278-0.94 0.514-1.478 0.706s-1.114 0.32-1.725 0.384c0.274-0.785 0.633-1.52 1.076-2.205zM43.109 24.427c-0.333 0.693-0.682 1.372-1.048 2.034s-0.735 1.284-1.109 1.87c-0.375 0.584-0.754 1.098-1.136 1.54-0.384 0.443-0.763 0.792-1.136 1.048-0.375 0.256-0.735 0.384-1.081 0.384-0.43 0-0.726-0.119-0.891-0.357s-0.247-0.543-0.247-0.917c0-0.302 0.139-0.735 0.417-1.301s0.725-1.2 1.336-1.903c0.611-0.703 1.4-1.44 2.362-2.212s2.124-1.513 3.485-2.225c-0.302 0.666-0.618 1.347-0.951 2.040zM44.382 18.882c-0.617 0.338-1.198 0.507-1.745 0.507s-0.931-0.152-1.233-0.459c-0.302-0.306-0.452-0.756-0.452-1.348s0.168-1.29 0.507-2.034c0.338-0.745 0.821-1.491 1.453-2.239 0.428-0.51 0.869-0.935 1.321-1.273s0.897-0.607 1.336-0.809c0.439-0.201 0.856-0.342 1.253-0.424s0.75-0.123 1.061-0.123c0.274 0 0.51 0.040 0.712 0.123s0.364 0.185 0.492 0.307c0.128 0.123 0.229 0.258 0.302 0.404s0.119 0.287 0.137 0.424c-0.366 0.512-0.697 1.004-0.993 1.478-0.296 0.476-0.574 0.939-0.836 1.39s-0.512 0.904-0.754 1.356c-0.242 0.452-0.487 0.911-0.734 1.376-0.602 0.556-1.211 1.004-1.828 1.343zM37.476 15.15c0.203-0.432 0.417-0.878 0.64-1.337 0-0.002 0.002-0.004 0.004-0.005 0 0 0-0.004 0.002-0.005 0.214-0.437 0.435-0.887 0.668-1.35 0.479-0.953 0.997-1.945 1.555-2.971 0.556-1.026 1.151-2.056 1.78-3.088 0.584-0.968 1.059-1.811 1.423-2.534 0.366-0.721 0.547-1.365 0.547-1.93 0-0.293-0.060-0.554-0.177-0.787-0.119-0.232-0.276-0.43-0.472-0.589s-0.421-0.284-0.671-0.37c-0.251-0.086-0.509-0.13-0.774-0.13-0.675 0-1.431 0.221-2.267 0.664s-1.723 1.043-2.664 1.8c-0.408 0.327-0.823 0.684-1.246 1.061-0.957 0.809-1.833 1.637-2.56 2.309-0.79 0.761-1.562 1.542-2.323 2.336-0.337-0.454-0.69-0.884-1.067-1.281-0.424-0.446-0.878-0.832-1.363-1.156s-0.995-0.58-1.533-0.767c-0.538-0.187-1.109-0.28-1.712-0.28-0.538 0-1.043 0.102-1.513 0.307s-0.876 0.485-1.218 0.836c-0.342 0.351-0.611 0.759-0.809 1.226-0.196 0.467-0.295 0.964-0.295 1.493 0 0.639 0.108 1.244 0.322 1.815s0.514 1.105 0.896 1.603c0.384 0.498 0.838 0.964 1.363 1.396 0.399 0.329 0.825 0.64 1.279 0.937-1.304 1.379-3.568 3.999-5.844 5.875h2.799c1.786-1.862 3.582-4.003 4.453-5.077 0.542 0.282 1.096 0.549 1.674 0.792 0.693 0.293 1.39 0.554 2.087 0.787 0.699 0.232 1.385 0.441 2.062 0.624 0.675 0.183 1.319 0.342 1.932 0.479l-1.215 2.395 2.005-0.016c0.397-1.030 0.979-2.34 1.553-3.588 0.207-0.456 0.43-0.942 0.677-1.465zM26.065 13.519c-0.106 0.115-0.214 0.231-0.322 0.348-0.435-0.274-0.849-0.562-1.229-0.865-0.437-0.351-0.818-0.726-1.136-1.123-0.32-0.397-0.571-0.812-0.754-1.246s-0.274-0.893-0.274-1.376c0-0.457 0.084-0.878 0.252-1.266s0.404-0.726 0.706-1.014c0.302-0.287 0.657-0.514 1.068-0.679s0.858-0.247 1.343-0.247c0.428 0 0.843 0.073 1.246 0.22s0.79 0.351 1.164 0.617c0.375 0.265 0.734 0.578 1.076 0.939s0.673 0.752 0.993 1.171c-0.040 0.046-0.079 0.091-0.119 0.137-1.363 1.451-2.691 2.927-4.014 4.387zM32.833 16.677c-0.598-0.165-1.228-0.359-1.89-0.582s-1.343-0.479-2.040-0.767c-0.589-0.243-1.153-0.516-1.7-0.807 0.006-0.005 0.009-0.013 0.015-0.018 1.092-1.381 2.139-2.759 3.235-4.111 0.176-0.21 0.368-0.443 0.571-0.69 0.406 0.613 0.783 1.251 1.127 1.921 0.36 0.703 0.684 1.39 0.971 2.062s0.538 1.299 0.754 1.883c0.214 0.584 0.386 1.081 0.514 1.493-0.437-0.091-0.957-0.22-1.555-0.384zM34.99 16.663c-0.165-0.465-0.359-1.003-0.582-1.61s-0.479-1.248-0.767-1.925c-0.287-0.675-0.609-1.365-0.966-2.067-0.346-0.682-0.726-1.341-1.142-1.981 0.285-0.346 0.591-0.714 0.911-1.094 2.069-2.228 3.866-3.944 5.386-5.148 1.747-1.383 3.129-2.075 4.142-2.075 0.32 0 0.602 0.075 0.849 0.225s0.37 0.371 0.37 0.664c0 0.174-0.053 0.381-0.157 0.624-0.104 0.242-0.28 0.545-0.527 0.911-1.515 2.183-2.882 4.391-4.094 6.628-1.215 2.238-2.355 4.519-3.423 6.848z"></path>
</svg>
